<?xml version="1.0" encoding="UTF-8" standalone="no"?><svg xmlns="http://www.w3.org/2000/svg" xmlns:xlink="http://www.w3.org/1999/xlink" contentStyleType="text/css" height="557px" preserveAspectRatio="none" style="width:1040px;height:557px;background:#FFFFFF;" version="1.1" viewBox="0 0 1040 557" width="1040px" zoomAndPan="magnify"><defs/><g><!--MD5=[a39318e1d9df945547aee91f2f40ffec]
class HumanResources.Shift--><g id="elem_HumanResources.Shift"><rect codeLine="7" fill="#F1F1F1" height="136.0469" id="HumanResources.Shift" rx="2.5" ry="2.5" style="stroke:#181818;stroke-width:0.5;" width="176" x="7" y="318"/><ellipse cx="22" cy="334" fill="#FFFFFF" rx="11" ry="11" style="stroke:#A80036;stroke-width:1.0;"/><path d="M22.9219,331.3906 L22.9219,338.0469 L24.0781,338.0469 Q24.6875,338.0469 24.9453,338.2813 Q25.2031,338.5156 25.2031,338.9063 Q25.2031,339.2813 24.9453,339.5156 Q24.6875,339.75 24.0781,339.75 L20.0938,339.75 Q19.4688,339.75 19.2109,339.5156 Q18.9531,339.2813 18.9531,338.8906 Q18.9531,338.5156 19.2109,338.2813 Q19.4688,338.0469 20.0938,338.0469 L21.2188,338.0469 L21.2188,331.3906 L19.375,331.3906 L19.375,333 Q19.375,333.6094 19.1406,333.875 Q18.9063,334.1406 18.5313,334.1406 Q18.1563,334.1406 17.9219,333.875 Q17.6875,333.6094 17.6875,333 L17.6875,329.6875 L26.5,329.6875 L26.5,333 Q26.5,333.6094 26.2578,333.875 Q26.0156,334.1406 25.6406,334.1406 Q25.2656,334.1406 25.0313,333.875 Q24.7969,333.6094 24.7969,333 L24.7969,331.3906 L22.9219,331.3906 Z " fill="#000000"/><text fill="#000000" font-family="sans-serif" font-size="14" lengthAdjust="spacing" textLength="144" x="36" y="339.7285">HumanResources.Shift</text><line style="stroke:#181818;stroke-width:0.5;" x1="8" x2="182" y1="350" y2="350"/><path d="M20.4167,358.776 C18.8067,358.776 17.5,360.0827 17.5,361.6927 C17.5,361.8794 17.5,362.066 17.535,362.241 L14,365.776 L14,368.1094 L17.5,368.1094 L17.5,365.776 L19.8333,365.776 L19.8333,364.6094 L19.8683,364.5744 C20.0433,364.6094 20.23,364.6094 20.4167,364.6094 C22.0267,364.6094 23.3333,363.3027 23.3333,361.6927 C23.3333,360.0827 22.0267,358.776 20.4167,358.776 M21,359.9427 C21.6417,359.9427 22.1667,360.4677 22.1667,361.1094 C22.1667,361.751 21.6417,362.276 21,362.276 C20.3583,362.276 19.8333,361.751 19.8333,361.1094 C19.8333,360.4677 20.3583,359.9427 21,359.9427 " fill="#B8861B" style="stroke:;stroke-width:0.0;stroke-dasharray:;"/><text fill="#000000" font-family="sans-serif" font-size="14" font-weight="bold" lengthAdjust="spacing" textLength="46" x="28.3333" y="368.5332">ShiftID</text><text fill="#000000" font-family="sans-serif" font-size="14" lengthAdjust="spacing" textLength="83" x="74.3333" y="368.5332">: tinyint «PK»</text><path d="M17.5,376.3854 C15.5633,376.3854 14,377.9488 14,379.8854 C14,381.8221 15.5633,383.3854 17.5,383.3854 C19.4367,383.3854 21,381.8221 21,379.8854 C21,377.9488 19.4367,376.3854 17.5,376.3854 " fill="#EFEFEF" style="stroke:;stroke-width:0.0;stroke-dasharray:;"/><text fill="#000000" font-family="sans-serif" font-size="14" lengthAdjust="spacing" textLength="100" x="28.3333" y="386.1426">Name: nvarchar</text><path d="M17.5,393.9948 C15.5633,393.9948 14,395.5581 14,397.4948 C14,399.4315 15.5633,400.9948 17.5,400.9948 C19.4367,400.9948 21,399.4315 21,397.4948 C21,395.5581 19.4367,393.9948 17.5,393.9948 " fill="#EFEFEF" style="stroke:;stroke-width:0.0;stroke-dasharray:;"/><text fill="#000000" font-family="sans-serif" font-size="14" lengthAdjust="spacing" textLength="95" x="28.3333" y="403.752">StartTime: time</text><path d="M17.5,411.6042 C15.5633,411.6042 14,413.1675 14,415.1042 C14,417.0408 15.5633,418.6042 17.5,418.6042 C19.4367,418.6042 21,417.0408 21,415.1042 C21,413.1675 19.4367,411.6042 17.5,411.6042 " fill="#EFEFEF" style="stroke:;stroke-width:0.0;stroke-dasharray:;"/><text fill="#000000" font-family="sans-serif" font-size="14" lengthAdjust="spacing" textLength="90" x="28.3333" y="421.3613">EndTime: time</text><path d="M17.5,429.2135 C15.5633,429.2135 14,430.7769 14,432.7135 C14,434.6502 15.5633,436.2135 17.5,436.2135 C19.4367,436.2135 21,434.6502 21,432.7135 C21,430.7769 19.4367,429.2135 17.5,429.2135 " fill="#EFEFEF" style="stroke:;stroke-width:0.0;stroke-dasharray:;"/><text fill="#000000" font-family="sans-serif" font-size="14" lengthAdjust="spacing" textLength="145" x="28.3333" y="438.9707">ModifiedDate: datetime</text><line style="stroke:#181818;stroke-width:0.5;" x1="8" x2="182" y1="446.0469" y2="446.0469"/></g><!--MD5=[38af680d50b69551ce79e3e355f02481]
class HumanResources.Department--><g id="elem_HumanResources.Department"><rect codeLine="15" fill="#F1F1F1" height="118.4375" id="HumanResources.Department" rx="2.5" ry="2.5" style="stroke:#181818;stroke-width:0.5;" width="222" x="218" y="327"/><ellipse cx="233" cy="343" fill="#FFFFFF" rx="11" ry="11" style="stroke:#A80036;stroke-width:1.0;"/><path d="M233.9219,340.3906 L233.9219,347.0469 L235.0781,347.0469 Q235.6875,347.0469 235.9453,347.2813 Q236.2031,347.5156 236.2031,347.9063 Q236.2031,348.2813 235.9453,348.5156 Q235.6875,348.75 235.0781,348.75 L231.0938,348.75 Q230.4688,348.75 230.2109,348.5156 Q229.9531,348.2813 229.9531,347.8906 Q229.9531,347.5156 230.2109,347.2813 Q230.4688,347.0469 231.0938,347.0469 L232.2188,347.0469 L232.2188,340.3906 L230.375,340.3906 L230.375,342 Q230.375,342.6094 230.1406,342.875 Q229.9063,343.1406 229.5313,343.1406 Q229.1563,343.1406 228.9219,342.875 Q228.6875,342.6094 228.6875,342 L228.6875,338.6875 L237.5,338.6875 L237.5,342 Q237.5,342.6094 237.2578,342.875 Q237.0156,343.1406 236.6406,343.1406 Q236.2656,343.1406 236.0313,342.875 Q235.7969,342.6094 235.7969,342 L235.7969,340.3906 L233.9219,340.3906 Z " fill="#000000"/><text fill="#000000" font-family="sans-serif" font-size="14" lengthAdjust="spacing" textLength="190" x="247" y="348.7285">HumanResources.Department</text><line style="stroke:#181818;stroke-width:0.5;" x1="219" x2="439" y1="359" y2="359"/><path d="M231.4167,367.776 C229.8067,367.776 228.5,369.0827 228.5,370.6927 C228.5,370.8794 228.5,371.066 228.535,371.241 L225,374.776 L225,377.1094 L228.5,377.1094 L228.5,374.776 L230.8333,374.776 L230.8333,373.6094 L230.8683,373.5744 C231.0433,373.6094 231.23,373.6094 231.4167,373.6094 C233.0267,373.6094 234.3333,372.3027 234.3333,370.6927 C234.3333,369.0827 233.0267,367.776 231.4167,367.776 M232,368.9427 C232.6417,368.9427 233.1667,369.4677 233.1667,370.1094 C233.1667,370.751 232.6417,371.276 232,371.276 C231.3583,371.276 230.8333,370.751 230.8333,370.1094 C230.8333,369.4677 231.3583,368.9427 232,368.9427 " fill="#B8861B" style="stroke:;stroke-width:0.0;stroke-dasharray:;"/><text fill="#000000" font-family="sans-serif" font-size="14" font-weight="bold" lengthAdjust="spacing" textLength="96" x="239.3333" y="377.5332">DepartmentID</text><text fill="#000000" font-family="sans-serif" font-size="14" lengthAdjust="spacing" textLength="93" x="335.3333" y="377.5332">: smallint «PK»</text><path d="M228.5,385.3854 C226.5633,385.3854 225,386.9488 225,388.8854 C225,390.8221 226.5633,392.3854 228.5,392.3854 C230.4367,392.3854 232,390.8221 232,388.8854 C232,386.9488 230.4367,385.3854 228.5,385.3854 " fill="#EFEFEF" style="stroke:;stroke-width:0.0;stroke-dasharray:;"/><text fill="#000000" font-family="sans-serif" font-size="14" lengthAdjust="spacing" textLength="100" x="239.3333" y="395.1426">Name: nvarchar</text><path d="M228.5,402.9948 C226.5633,402.9948 225,404.5581 225,406.4948 C225,408.4315 226.5633,409.9948 228.5,409.9948 C230.4367,409.9948 232,408.4315 232,406.4948 C232,404.5581 230.4367,402.9948 228.5,402.9948 " fill="#EFEFEF" style="stroke:;stroke-width:0.0;stroke-dasharray:;"/><text fill="#000000" font-family="sans-serif" font-size="14" lengthAdjust="spacing" textLength="140" x="239.3333" y="412.752">GroupName: nvarchar</text><path d="M228.5,420.6042 C226.5633,420.6042 225,422.1675 225,424.1042 C225,426.0408 226.5633,427.6042 228.5,427.6042 C230.4367,427.6042 232,426.0408 232,424.1042 C232,422.1675 230.4367,420.6042 228.5,420.6042 " fill="#EFEFEF" style="stroke:;stroke-width:0.0;stroke-dasharray:;"/><text fill="#000000" font-family="sans-serif" font-size="14" lengthAdjust="spacing" textLength="145" x="239.3333" y="430.3613">ModifiedDate: datetime</text><line style="stroke:#181818;stroke-width:0.5;" x1="219" x2="439" y1="437.4375" y2="437.4375"/></g><!--MD5=[6cdf753bb4b9c1bac674e09c01ddba7b]
class HumanResources.Employee--><g id="elem_HumanResources.Employee"><rect codeLine="22" fill="#F1F1F1" height="329.75" id="HumanResources.Employee" rx="2.5" ry="2.5" style="stroke:#181818;stroke-width:0.5;" width="218.3333" x="516" y="221"/><ellipse cx="534.75" cy="237" fill="#FFFFFF" rx="11" ry="11" style="stroke:#A80036;stroke-width:1.0;"/><path d="M535.6719,234.3906 L535.6719,241.0469 L536.8281,241.0469 Q537.4375,241.0469 537.6953,241.2813 Q537.9531,241.5156 537.9531,241.9063 Q537.9531,242.2813 537.6953,242.5156 Q537.4375,242.75 536.8281,242.75 L532.8438,242.75 Q532.2188,242.75 531.9609,242.5156 Q531.7031,242.2813 531.7031,241.8906 Q531.7031,241.5156 531.9609,241.2813 Q532.2188,241.0469 532.8438,241.0469 L533.9688,241.0469 L533.9688,234.3906 L532.125,234.3906 L532.125,236 Q532.125,236.6094 531.8906,236.875 Q531.6563,237.1406 531.2813,237.1406 Q530.9063,237.1406 530.6719,236.875 Q530.4375,236.6094 530.4375,236 L530.4375,232.6875 L539.25,232.6875 L539.25,236 Q539.25,236.6094 539.0078,236.875 Q538.7656,237.1406 538.3906,237.1406 Q538.0156,237.1406 537.7813,236.875 Q537.5469,236.6094 537.5469,236 L537.5469,234.3906 L535.6719,234.3906 Z " fill="#000000"/><text fill="#000000" font-family="sans-serif" font-size="14" lengthAdjust="spacing" textLength="178" x="549.5833" y="242.7285">HumanResources.Employee</text><line style="stroke:#181818;stroke-width:0.5;" x1="517" x2="733.3333" y1="253" y2="253"/><path d="M529.4167,261.776 C527.8067,261.776 526.5,263.0827 526.5,264.6927 C526.5,264.8794 526.5,265.066 526.535,265.241 L523,268.776 L523,271.1094 L526.5,271.1094 L526.5,268.776 L528.8333,268.776 L528.8333,267.6094 L528.8683,267.5744 C529.0433,267.6094 529.23,267.6094 529.4167,267.6094 C531.0267,267.6094 532.3333,266.3027 532.3333,264.6927 C532.3333,263.0827 531.0267,261.776 529.4167,261.776 M530,262.9427 C530.6417,262.9427 531.1667,263.4677 531.1667,264.1094 C531.1667,264.751 530.6417,265.276 530,265.276 C529.3583,265.276 528.8333,264.751 528.8333,264.1094 C528.8333,263.4677 529.3583,262.9427 530,262.9427 " fill="#B8861B" style="stroke:;stroke-width:0.0;stroke-dasharray:;"/><text fill="#000000" font-family="sans-serif" font-size="14" font-weight="bold" lengthAdjust="spacing" textLength="118" x="537.3333" y="271.5332">BusinessEntityID</text><text fill="#000000" font-family="sans-serif" font-size="14" lengthAdjust="spacing" textLength="61" x="655.3333" y="271.5332">: int «PK»</text><path d="M526.5,279.3854 C524.5633,279.3854 523,280.9488 523,282.8854 C523,284.8221 524.5633,286.3854 526.5,286.3854 C528.4367,286.3854 530,284.8221 530,282.8854 C530,280.9488 528.4367,279.3854 526.5,279.3854 " fill="#EFEFEF" style="stroke:;stroke-width:0.0;stroke-dasharray:;"/><text fill="#000000" font-family="sans-serif" font-size="14" lengthAdjust="spacing" textLength="177" x="537.3333" y="289.1426">NationalIDNumber: nvarchar</text><path d="M526.5,296.9948 C524.5633,296.9948 523,298.5581 523,300.4948 C523,302.4315 524.5633,303.9948 526.5,303.9948 C528.4367,303.9948 530,302.4315 530,300.4948 C530,298.5581 528.4367,296.9948 526.5,296.9948 " fill="#EFEFEF" style="stroke:;stroke-width:0.0;stroke-dasharray:;"/><text fill="#000000" font-family="sans-serif" font-size="14" lengthAdjust="spacing" textLength="112" x="537.3333" y="306.752">LoginID: nvarchar</text><path d="M526.5,314.6042 C524.5633,314.6042 523,316.1675 523,318.1042 C523,320.0408 524.5633,321.6042 526.5,321.6042 C528.4367,321.6042 530,320.0408 530,318.1042 C530,316.1675 528.4367,314.6042 526.5,314.6042 " fill="#EFEFEF" style="stroke:;stroke-width:0.0;stroke-dasharray:;"/><text fill="#000000" font-family="sans-serif" font-size="14" lengthAdjust="spacing" textLength="191" x="537.3333" y="324.3613">OrganizationNode: hierarchyid</text><path d="M526.5,332.2135 C524.5633,332.2135 523,333.7769 523,335.7135 C523,337.6502 524.5633,339.2135 526.5,339.2135 C528.4367,339.2135 530,337.6502 530,335.7135 C530,333.7769 528.4367,332.2135 526.5,332.2135 " fill="#EFEFEF" style="stroke:;stroke-width:0.0;stroke-dasharray:;"/><text fill="#000000" font-family="sans-serif" font-size="14" lengthAdjust="spacing" textLength="169" x="537.3333" y="341.9707">OrganizationLevel: smallint</text><path d="M526.5,349.8229 C524.5633,349.8229 523,351.3862 523,353.3229 C523,355.2596 524.5633,356.8229 526.5,356.8229 C528.4367,356.8229 530,355.2596 530,353.3229 C530,351.3862 528.4367,349.8229 526.5,349.8229 " fill="#EFEFEF" style="stroke:;stroke-width:0.0;stroke-dasharray:;"/><text fill="#000000" font-family="sans-serif" font-size="14" lengthAdjust="spacing" textLength="113" x="537.3333" y="359.5801">JobTitle: nvarchar</text><path d="M526.5,367.4323 C524.5633,367.4323 523,368.9956 523,370.9323 C523,372.869 524.5633,374.4323 526.5,374.4323 C528.4367,374.4323 530,372.869 530,370.9323 C530,368.9956 528.4367,367.4323 526.5,367.4323 " fill="#EFEFEF" style="stroke:;stroke-width:0.0;stroke-dasharray:;"/><text fill="#000000" font-family="sans-serif" font-size="14" lengthAdjust="spacing" textLength="95" x="537.3333" y="377.1895">BirthDate: date</text><path d="M526.5,385.0417 C524.5633,385.0417 523,386.605 523,388.5417 C523,390.4783 524.5633,392.0417 526.5,392.0417 C528.4367,392.0417 530,390.4783 530,388.5417 C530,386.605 528.4367,385.0417 526.5,385.0417 " fill="#EFEFEF" style="stroke:;stroke-width:0.0;stroke-dasharray:;"/><text fill="#000000" font-family="sans-serif" font-size="14" lengthAdjust="spacing" textLength="126" x="537.3333" y="394.7988">MaritalStatus: nchar</text><path d="M526.5,402.651 C524.5633,402.651 523,404.2144 523,406.151 C523,408.0877 524.5633,409.651 526.5,409.651 C528.4367,409.651 530,408.0877 530,406.151 C530,404.2144 528.4367,402.651 526.5,402.651 " fill="#EFEFEF" style="stroke:;stroke-width:0.0;stroke-dasharray:;"/><text fill="#000000" font-family="sans-serif" font-size="14" lengthAdjust="spacing" textLength="92" x="537.3333" y="412.4082">Gender: nchar</text><path d="M526.5,420.2604 C524.5633,420.2604 523,421.8237 523,423.7604 C523,425.6971 524.5633,427.2604 526.5,427.2604 C528.4367,427.2604 530,425.6971 530,423.7604 C530,421.8237 528.4367,420.2604 526.5,420.2604 " fill="#EFEFEF" style="stroke:;stroke-width:0.0;stroke-dasharray:;"/><text fill="#000000" font-family="sans-serif" font-size="14" lengthAdjust="spacing" textLength="91" x="537.3333" y="430.0176">HireDate: date</text><path d="M526.5,437.8698 C524.5633,437.8698 523,439.4331 523,441.3698 C523,443.3065 524.5633,444.8698 526.5,444.8698 C528.4367,444.8698 530,443.3065 530,441.3698 C530,439.4331 528.4367,437.8698 526.5,437.8698 " fill="#EFEFEF" style="stroke:;stroke-width:0.0;stroke-dasharray:;"/><text fill="#000000" font-family="sans-serif" font-size="14" lengthAdjust="spacing" textLength="103" x="537.3333" y="447.627">SalariedFlag: bit</text><path d="M526.5,455.4792 C524.5633,455.4792 523,457.0425 523,458.9792 C523,460.9158 524.5633,462.4792 526.5,462.4792 C528.4367,462.4792 530,460.9158 530,458.9792 C530,457.0425 528.4367,455.4792 526.5,455.4792 " fill="#EFEFEF" style="stroke:;stroke-width:0.0;stroke-dasharray:;"/><text fill="#000000" font-family="sans-serif" font-size="14" lengthAdjust="spacing" textLength="147" x="537.3333" y="465.2363">VacationHours: smallint</text><path d="M526.5,473.0885 C524.5633,473.0885 523,474.6519 523,476.5885 C523,478.5252 524.5633,480.0885 526.5,480.0885 C528.4367,480.0885 530,478.5252 530,476.5885 C530,474.6519 528.4367,473.0885 526.5,473.0885 " fill="#EFEFEF" style="stroke:;stroke-width:0.0;stroke-dasharray:;"/><text fill="#000000" font-family="sans-serif" font-size="14" lengthAdjust="spacing" textLength="157" x="537.3333" y="482.8457">SickLeaveHours: smallint</text><path d="M526.5,490.6979 C524.5633,490.6979 523,492.2613 523,494.1979 C523,496.1346 524.5633,497.6979 526.5,497.6979 C528.4367,497.6979 530,496.1346 530,494.1979 C530,492.2613 528.4367,490.6979 526.5,490.6979 " fill="#EFEFEF" style="stroke:;stroke-width:0.0;stroke-dasharray:;"/><text fill="#000000" font-family="sans-serif" font-size="14" lengthAdjust="spacing" textLength="99" x="537.3333" y="500.4551">CurrentFlag: bit</text><path d="M526.5,508.3073 C524.5633,508.3073 523,509.8706 523,511.8073 C523,513.744 524.5633,515.3073 526.5,515.3073 C528.4367,515.3073 530,513.744 530,511.8073 C530,509.8706 528.4367,508.3073 526.5,508.3073 " fill="#EFEFEF" style="stroke:;stroke-width:0.0;stroke-dasharray:;"/><text fill="#000000" font-family="sans-serif" font-size="14" lengthAdjust="spacing" textLength="154" x="537.3333" y="518.0645">rowguid: uniqueidentifier</text><path d="M526.5,525.9167 C524.5633,525.9167 523,527.48 523,529.4167 C523,531.3533 524.5633,532.9167 526.5,532.9167 C528.4367,532.9167 530,531.3533 530,529.4167 C530,527.48 528.4367,525.9167 526.5,525.9167 " fill="#EFEFEF" style="stroke:;stroke-width:0.0;stroke-dasharray:;"/><text fill="#000000" font-family="sans-serif" font-size="14" lengthAdjust="spacing" textLength="145" x="537.3333" y="535.6738">ModifiedDate: datetime</text><line style="stroke:#181818;stroke-width:0.5;" x1="517" x2="733.3333" y1="542.75" y2="542.75"/></g><!--MD5=[6ca21dbcab7713e07d341a84a760c32f]
class HumanResources.EmployeeDepartmentHistory--><g id="elem_HumanResources.EmployeeDepartmentHistory"><rect codeLine="41" fill="#F1F1F1" height="153.6563" id="HumanResources.EmployeeDepartmentHistory" rx="2.5" ry="2.5" style="stroke:#181818;stroke-width:0.5;" width="327" x="124.5" y="7"/><ellipse cx="139.5" cy="23" fill="#FFFFFF" rx="11" ry="11" style="stroke:#A80036;stroke-width:1.0;"/><path d="M140.4219,20.3906 L140.4219,27.0469 L141.5781,27.0469 Q142.1875,27.0469 142.4453,27.2813 Q142.7031,27.5156 142.7031,27.9063 Q142.7031,28.2813 142.4453,28.5156 Q142.1875,28.75 141.5781,28.75 L137.5938,28.75 Q136.9688,28.75 136.7109,28.5156 Q136.4531,28.2813 136.4531,27.8906 Q136.4531,27.5156 136.7109,27.2813 Q136.9688,27.0469 137.5938,27.0469 L138.7188,27.0469 L138.7188,20.3906 L136.875,20.3906 L136.875,22 Q136.875,22.6094 136.6406,22.875 Q136.4063,23.1406 136.0313,23.1406 Q135.6563,23.1406 135.4219,22.875 Q135.1875,22.6094 135.1875,22 L135.1875,18.6875 L144,18.6875 L144,22 Q144,22.6094 143.7578,22.875 Q143.5156,23.1406 143.1406,23.1406 Q142.7656,23.1406 142.5313,22.875 Q142.2969,22.6094 142.2969,22 L142.2969,20.3906 L140.4219,20.3906 Z " fill="#000000"/><text fill="#000000" font-family="sans-serif" font-size="14" lengthAdjust="spacing" textLength="295" x="153.5" y="28.7285">HumanResources.EmployeeDepartmentHistory</text><line style="stroke:#181818;stroke-width:0.5;" x1="125.5" x2="450.5" y1="39" y2="39"/><path d="M137.9167,47.776 C136.3067,47.776 135,49.0827 135,50.6927 C135,50.8794 135,51.066 135.035,51.241 L131.5,54.776 L131.5,57.1094 L135,57.1094 L135,54.776 L137.3333,54.776 L137.3333,53.6094 L137.3683,53.5744 C137.5433,53.6094 137.73,53.6094 137.9167,53.6094 C139.5267,53.6094 140.8333,52.3027 140.8333,50.6927 C140.8333,49.0827 139.5267,47.776 137.9167,47.776 M138.5,48.9427 C139.1417,48.9427 139.6667,49.4677 139.6667,50.1094 C139.6667,50.751 139.1417,51.276 138.5,51.276 C137.8583,51.276 137.3333,50.751 137.3333,50.1094 C137.3333,49.4677 137.8583,48.9427 138.5,48.9427 " fill="#B8861B" style="stroke:;stroke-width:0.0;stroke-dasharray:;"/><text fill="#000000" font-family="sans-serif" font-size="14" font-weight="bold" lengthAdjust="spacing" textLength="118" x="145.8333" y="57.5332">BusinessEntityID</text><text fill="#000000" font-family="sans-serif" font-size="14" lengthAdjust="spacing" textLength="61" x="263.8333" y="57.5332">: int «PK»</text><path d="M137.9167,65.3854 C136.3067,65.3854 135,66.6921 135,68.3021 C135,68.4888 135,68.6754 135.035,68.8504 L131.5,72.3854 L131.5,74.7187 L135,74.7187 L135,72.3854 L137.3333,72.3854 L137.3333,71.2187 L137.3683,71.1837 C137.5433,71.2187 137.73,71.2187 137.9167,71.2187 C139.5267,71.2187 140.8333,69.9121 140.8333,68.3021 C140.8333,66.6921 139.5267,65.3854 137.9167,65.3854 M138.5,66.5521 C139.1417,66.5521 139.6667,67.0771 139.6667,67.7187 C139.6667,68.3604 139.1417,68.8854 138.5,68.8854 C137.8583,68.8854 137.3333,68.3604 137.3333,67.7187 C137.3333,67.0771 137.8583,66.5521 138.5,66.5521 " fill="#B8861B" style="stroke:;stroke-width:0.0;stroke-dasharray:;"/><text fill="#000000" font-family="sans-serif" font-size="14" font-weight="bold" lengthAdjust="spacing" textLength="96" x="145.8333" y="75.1426">DepartmentID</text><text fill="#000000" font-family="sans-serif" font-size="14" lengthAdjust="spacing" textLength="93" x="241.8333" y="75.1426">: smallint «PK»</text><path d="M137.9167,82.9948 C136.3067,82.9948 135,84.3015 135,85.9115 C135,86.0981 135,86.2848 135.035,86.4598 L131.5,89.9948 L131.5,92.3281 L135,92.3281 L135,89.9948 L137.3333,89.9948 L137.3333,88.8281 L137.3683,88.7931 C137.5433,88.8281 137.73,88.8281 137.9167,88.8281 C139.5267,88.8281 140.8333,87.5215 140.8333,85.9115 C140.8333,84.3015 139.5267,82.9948 137.9167,82.9948 M138.5,84.1615 C139.1417,84.1615 139.6667,84.6865 139.6667,85.3281 C139.6667,85.9698 139.1417,86.4948 138.5,86.4948 C137.8583,86.4948 137.3333,85.9698 137.3333,85.3281 C137.3333,84.6865 137.8583,84.1615 138.5,84.1615 " fill="#B8861B" style="stroke:;stroke-width:0.0;stroke-dasharray:;"/><text fill="#000000" font-family="sans-serif" font-size="14" font-weight="bold" lengthAdjust="spacing" textLength="46" x="145.8333" y="92.752">ShiftID</text><text fill="#000000" font-family="sans-serif" font-size="14" lengthAdjust="spacing" textLength="83" x="191.8333" y="92.752">: tinyint «PK»</text><path d="M137.9167,100.6042 C136.3067,100.6042 135,101.9108 135,103.5208 C135,103.7075 135,103.8942 135.035,104.0692 L131.5,107.6042 L131.5,109.9375 L135,109.9375 L135,107.6042 L137.3333,107.6042 L137.3333,106.4375 L137.3683,106.4025 C137.5433,106.4375 137.73,106.4375 137.9167,106.4375 C139.5267,106.4375 140.8333,105.1308 140.8333,103.5208 C140.8333,101.9108 139.5267,100.6042 137.9167,100.6042 M138.5,101.7708 C139.1417,101.7708 139.6667,102.2958 139.6667,102.9375 C139.6667,103.5792 139.1417,104.1042 138.5,104.1042 C137.8583,104.1042 137.3333,103.5792 137.3333,102.9375 C137.3333,102.2958 137.8583,101.7708 138.5,101.7708 " fill="#B8861B" style="stroke:;stroke-width:0.0;stroke-dasharray:;"/><text fill="#000000" font-family="sans-serif" font-size="14" font-weight="bold" lengthAdjust="spacing" textLength="65" x="145.8333" y="110.3613">StartDate</text><text fill="#000000" font-family="sans-serif" font-size="14" lengthAdjust="spacing" textLength="74" x="210.8333" y="110.3613">: date «PK»</text><path d="M135,118.2135 C133.0633,118.2135 131.5,119.7769 131.5,121.7135 C131.5,123.6502 133.0633,125.2135 135,125.2135 C136.9367,125.2135 138.5,123.6502 138.5,121.7135 C138.5,119.7769 136.9367,118.2135 135,118.2135 " fill="#EFEFEF" style="stroke:;stroke-width:0.0;stroke-dasharray:;"/><text fill="#000000" font-family="sans-serif" font-size="14" lengthAdjust="spacing" textLength="91" x="145.8333" y="127.9707">EndDate: date</text><path d="M135,135.8229 C133.0633,135.8229 131.5,137.3863 131.5,139.3229 C131.5,141.2596 133.0633,142.8229 135,142.8229 C136.9367,142.8229 138.5,141.2596 138.5,139.3229 C138.5,137.3863 136.9367,135.8229 135,135.8229 " fill="#EFEFEF" style="stroke:;stroke-width:0.0;stroke-dasharray:;"/><text fill="#000000" font-family="sans-serif" font-size="14" lengthAdjust="spacing" textLength="145" x="145.8333" y="145.5801">ModifiedDate: datetime</text><line style="stroke:#181818;stroke-width:0.5;" x1="125.5" x2="450.5" y1="152.6563" y2="152.6563"/></g><!--MD5=[6da856a21bb17780920d1294853b1a02]
class HumanResources.EmployeePayHistory--><g id="elem_HumanResources.EmployeePayHistory"><rect codeLine="50" fill="#F1F1F1" height="136.0469" id="HumanResources.EmployeePayHistory" rx="2.5" ry="2.5" style="stroke:#181818;stroke-width:0.5;" width="277" x="486.5" y="16"/><ellipse cx="501.5" cy="32" fill="#FFFFFF" rx="11" ry="11" style="stroke:#A80036;stroke-width:1.0;"/><path d="M502.4219,29.3906 L502.4219,36.0469 L503.5781,36.0469 Q504.1875,36.0469 504.4453,36.2813 Q504.7031,36.5156 504.7031,36.9063 Q504.7031,37.2813 504.4453,37.5156 Q504.1875,37.75 503.5781,37.75 L499.5938,37.75 Q498.9688,37.75 498.7109,37.5156 Q498.4531,37.2813 498.4531,36.8906 Q498.4531,36.5156 498.7109,36.2813 Q498.9688,36.0469 499.5938,36.0469 L500.7188,36.0469 L500.7188,29.3906 L498.875,29.3906 L498.875,31 Q498.875,31.6094 498.6406,31.875 Q498.4063,32.1406 498.0313,32.1406 Q497.6563,32.1406 497.4219,31.875 Q497.1875,31.6094 497.1875,31 L497.1875,27.6875 L506,27.6875 L506,31 Q506,31.6094 505.7578,31.875 Q505.5156,32.1406 505.1406,32.1406 Q504.7656,32.1406 504.5313,31.875 Q504.2969,31.6094 504.2969,31 L504.2969,29.3906 L502.4219,29.3906 Z " fill="#000000"/><text fill="#000000" font-family="sans-serif" font-size="14" lengthAdjust="spacing" textLength="245" x="515.5" y="37.7285">HumanResources.EmployeePayHistory</text><line style="stroke:#181818;stroke-width:0.5;" x1="487.5" x2="762.5" y1="48" y2="48"/><path d="M499.9167,56.776 C498.3067,56.776 497,58.0827 497,59.6927 C497,59.8794 497,60.066 497.035,60.241 L493.5,63.776 L493.5,66.1094 L497,66.1094 L497,63.776 L499.3333,63.776 L499.3333,62.6094 L499.3683,62.5744 C499.5433,62.6094 499.73,62.6094 499.9167,62.6094 C501.5267,62.6094 502.8333,61.3027 502.8333,59.6927 C502.8333,58.0827 501.5267,56.776 499.9167,56.776 M500.5,57.9427 C501.1417,57.9427 501.6667,58.4677 501.6667,59.1094 C501.6667,59.751 501.1417,60.276 500.5,60.276 C499.8583,60.276 499.3333,59.751 499.3333,59.1094 C499.3333,58.4677 499.8583,57.9427 500.5,57.9427 " fill="#B8861B" style="stroke:;stroke-width:0.0;stroke-dasharray:;"/><text fill="#000000" font-family="sans-serif" font-size="14" font-weight="bold" lengthAdjust="spacing" textLength="118" x="507.8333" y="66.5332">BusinessEntityID</text><text fill="#000000" font-family="sans-serif" font-size="14" lengthAdjust="spacing" textLength="61" x="625.8333" y="66.5332">: int «PK»</text><path d="M499.9167,74.3854 C498.3067,74.3854 497,75.6921 497,77.3021 C497,77.4888 497,77.6754 497.035,77.8504 L493.5,81.3854 L493.5,83.7187 L497,83.7187 L497,81.3854 L499.3333,81.3854 L499.3333,80.2187 L499.3683,80.1837 C499.5433,80.2187 499.73,80.2187 499.9167,80.2187 C501.5267,80.2187 502.8333,78.9121 502.8333,77.3021 C502.8333,75.6921 501.5267,74.3854 499.9167,74.3854 M500.5,75.5521 C501.1417,75.5521 501.6667,76.0771 501.6667,76.7187 C501.6667,77.3604 501.1417,77.8854 500.5,77.8854 C499.8583,77.8854 499.3333,77.3604 499.3333,76.7187 C499.3333,76.0771 499.8583,75.5521 500.5,75.5521 " fill="#B8861B" style="stroke:;stroke-width:0.0;stroke-dasharray:;"/><text fill="#000000" font-family="sans-serif" font-size="14" font-weight="bold" lengthAdjust="spacing" textLength="118" x="507.8333" y="84.1426">RateChangeDate</text><text fill="#000000" font-family="sans-serif" font-size="14" lengthAdjust="spacing" textLength="100" x="625.8333" y="84.1426">: datetime «PK»</text><path d="M497,91.9948 C495.0633,91.9948 493.5,93.5581 493.5,95.4948 C493.5,97.4315 495.0633,98.9948 497,98.9948 C498.9367,98.9948 500.5,97.4315 500.5,95.4948 C500.5,93.5581 498.9367,91.9948 497,91.9948 " fill="#EFEFEF" style="stroke:;stroke-width:0.0;stroke-dasharray:;"/><text fill="#000000" font-family="sans-serif" font-size="14" lengthAdjust="spacing" textLength="80" x="507.8333" y="101.752">Rate: money</text><path d="M497,109.6042 C495.0633,109.6042 493.5,111.1675 493.5,113.1042 C493.5,115.0408 495.0633,116.6042 497,116.6042 C498.9367,116.6042 500.5,115.0408 500.5,113.1042 C500.5,111.1675 498.9367,109.6042 497,109.6042 " fill="#EFEFEF" style="stroke:;stroke-width:0.0;stroke-dasharray:;"/><text fill="#000000" font-family="sans-serif" font-size="14" lengthAdjust="spacing" textLength="137" x="507.8333" y="119.3613">PayFrequency: tinyint</text><path d="M497,127.2135 C495.0633,127.2135 493.5,128.7769 493.5,130.7135 C493.5,132.6502 495.0633,134.2135 497,134.2135 C498.9367,134.2135 500.5,132.6502 500.5,130.7135 C500.5,128.7769 498.9367,127.2135 497,127.2135 " fill="#EFEFEF" style="stroke:;stroke-width:0.0;stroke-dasharray:;"/><text fill="#000000" font-family="sans-serif" font-size="14" lengthAdjust="spacing" textLength="145" x="507.8333" y="136.9707">ModifiedDate: datetime</text><line style="stroke:#181818;stroke-width:0.5;" x1="487.5" x2="762.5" y1="144.0469" y2="144.0469"/></g><!--MD5=[6811808215c131d34c87217155838b4c]
class HumanResources.JobCandidate--><g id="elem_HumanResources.JobCandidate"><rect codeLine="58" fill="#F1F1F1" height="118.4375" id="HumanResources.JobCandidate" rx="2.5" ry="2.5" style="stroke:#181818;stroke-width:0.5;" width="235" x="798.5" y="25"/><ellipse cx="813.5" cy="41" fill="#FFFFFF" rx="11" ry="11" style="stroke:#A80036;stroke-width:1.0;"/><path d="M814.4219,38.3906 L814.4219,45.0469 L815.5781,45.0469 Q816.1875,45.0469 816.4453,45.2813 Q816.7031,45.5156 816.7031,45.9063 Q816.7031,46.2813 816.4453,46.5156 Q816.1875,46.75 815.5781,46.75 L811.5938,46.75 Q810.9688,46.75 810.7109,46.5156 Q810.4531,46.2813 810.4531,45.8906 Q810.4531,45.5156 810.7109,45.2813 Q810.9688,45.0469 811.5938,45.0469 L812.7188,45.0469 L812.7188,38.3906 L810.875,38.3906 L810.875,40 Q810.875,40.6094 810.6406,40.875 Q810.4063,41.1406 810.0313,41.1406 Q809.6563,41.1406 809.4219,40.875 Q809.1875,40.6094 809.1875,40 L809.1875,36.6875 L818,36.6875 L818,40 Q818,40.6094 817.7578,40.875 Q817.5156,41.1406 817.1406,41.1406 Q816.7656,41.1406 816.5313,40.875 Q816.2969,40.6094 816.2969,40 L816.2969,38.3906 L814.4219,38.3906 Z " fill="#000000"/><text fill="#000000" font-family="sans-serif" font-size="14" lengthAdjust="spacing" textLength="203" x="827.5" y="46.7285">HumanResources.JobCandidate</text><line style="stroke:#181818;stroke-width:0.5;" x1="799.5" x2="1032.5" y1="57" y2="57"/><path d="M811.9167,65.776 C810.3067,65.776 809,67.0827 809,68.6927 C809,68.8794 809,69.066 809.035,69.241 L805.5,72.776 L805.5,75.1094 L809,75.1094 L809,72.776 L811.3333,72.776 L811.3333,71.6094 L811.3683,71.5744 C811.5433,71.6094 811.73,71.6094 811.9167,71.6094 C813.5267,71.6094 814.8333,70.3027 814.8333,68.6927 C814.8333,67.0827 813.5267,65.776 811.9167,65.776 M812.5,66.9427 C813.1417,66.9427 813.6667,67.4677 813.6667,68.1094 C813.6667,68.751 813.1417,69.276 812.5,69.276 C811.8583,69.276 811.3333,68.751 811.3333,68.1094 C811.3333,67.4677 811.8583,66.9427 812.5,66.9427 " fill="#B8861B" style="stroke:;stroke-width:0.0;stroke-dasharray:;"/><text fill="#000000" font-family="sans-serif" font-size="14" font-weight="bold" lengthAdjust="spacing" textLength="111" x="819.8333" y="75.5332">JobCandidateID</text><text fill="#000000" font-family="sans-serif" font-size="14" lengthAdjust="spacing" textLength="61" x="930.8333" y="75.5332">: int «PK»</text><path d="M811.9167,83.3854 C810.3067,83.3854 809,84.6921 809,86.3021 C809,86.4888 809,86.6754 809.035,86.8504 L805.5,90.3854 L805.5,92.7187 L809,92.7187 L809,90.3854 L811.3333,90.3854 L811.3333,89.2187 L811.3683,89.1837 C811.5433,89.2187 811.73,89.2187 811.9167,89.2187 C813.5267,89.2187 814.8333,87.9121 814.8333,86.3021 C814.8333,84.6921 813.5267,83.3854 811.9167,83.3854 M812.5,84.5521 C813.1417,84.5521 813.6667,85.0771 813.6667,85.7187 C813.6667,86.3604 813.1417,86.8854 812.5,86.8854 C811.8583,86.8854 811.3333,86.3604 811.3333,85.7187 C811.3333,85.0771 811.8583,84.5521 812.5,84.5521 " fill="#AAAAAA" style="stroke:;stroke-width:0.0;stroke-dasharray:;"/><text fill="#000000" font-family="sans-serif" font-size="14" lengthAdjust="spacing" textLength="166" x="819.8333" y="93.1426">BusinessEntityID: int «FK»</text><path d="M809,100.9948 C807.0633,100.9948 805.5,102.5581 805.5,104.4948 C805.5,106.4315 807.0633,107.9948 809,107.9948 C810.9367,107.9948 812.5,106.4315 812.5,104.4948 C812.5,102.5581 810.9367,100.9948 809,100.9948 " fill="#EFEFEF" style="stroke:;stroke-width:0.0;stroke-dasharray:;"/><text fill="#000000" font-family="sans-serif" font-size="14" lengthAdjust="spacing" textLength="80" x="819.8333" y="110.752">Resume: xml</text><path d="M809,118.6042 C807.0633,118.6042 805.5,120.1675 805.5,122.1042 C805.5,124.0408 807.0633,125.6042 809,125.6042 C810.9367,125.6042 812.5,124.0408 812.5,122.1042 C812.5,120.1675 810.9367,118.6042 809,118.6042 " fill="#EFEFEF" style="stroke:;stroke-width:0.0;stroke-dasharray:;"/><text fill="#000000" font-family="sans-serif" font-size="14" lengthAdjust="spacing" textLength="145" x="819.8333" y="128.3613">ModifiedDate: datetime</text><line style="stroke:#181818;stroke-width:0.5;" x1="799.5" x2="1032.5" y1="135.4375" y2="135.4375"/></g><!--MD5=[9512cbf4782d7f80e031930d0fe2c656]
link HumanResources.EmployeeDepartmentHistory to HumanResources.Department--><g id="link_HumanResources.EmployeeDepartmentHistory_HumanResources.Department"><path codeLine="66" d="M299.49,169.06 C305.97,216.46 313.94,274.82 319.97,318.92 " fill="none" id="HumanResources.EmployeeDepartmentHistory-HumanResources.Department" style="stroke:#181818;stroke-width:1.0;"/><line style="stroke:#181818;stroke-width:1.0;" x1="324.4903" x2="316.5643" y1="322.4743" y2="323.5597"/><line style="stroke:#181818;stroke-width:1.0;" x1="324.0833" x2="316.1573" y1="319.502" y2="320.5874"/><line style="stroke:#181818;stroke-width:1.0;" x1="319.9846" x2="321.07" y1="319.054" y2="326.98"/><line style="stroke:#181818;stroke-width:1.0;" x1="299.4854" x2="292.4555" y1="169.016" y2="161.904"/><line style="stroke:#181818;stroke-width:1.0;" x1="299.4854" x2="304.3445" y1="169.016" y2="160.276"/><line style="stroke:#181818;stroke-width:1.0;" x1="299.4854" x2="298.4" y1="169.016" y2="161.09"/><line style="stroke:#181818;stroke-width:1.0;" x1="295.7937" x2="303.7197" y1="171.5402" y2="170.4549"/></g><!--MD5=[33572d9a6492f68d1c82041e330cad7a]
link HumanResources.EmployeeDepartmentHistory to HumanResources.Employee--><g id="link_HumanResources.EmployeeDepartmentHistory_HumanResources.Employee"><path codeLine="67" d="M392.94,166.2 C414.78,183.86 437.41,202.74 458,221 C475.07,236.14 492.69,252.53 509.79,268.89 " fill="none" id="HumanResources.EmployeeDepartmentHistory-HumanResources.Employee" style="stroke:#181818;stroke-width:1.0;"/><line style="stroke:#181818;stroke-width:1.0;" x1="515.4557" x2="509.9143" y1="268.7843" y2="274.5543"/><line style="stroke:#181818;stroke-width:1.0;" x1="513.292" x2="507.7506" y1="266.7063" y2="272.4762"/><line style="stroke:#181818;stroke-width:1.0;" x1="509.8" x2="515.57" y1="268.8986" y2="274.44"/><line style="stroke:#181818;stroke-width:1.0;" x1="392.7216" x2="382.7275" y1="166.0267" y2="165.6837"/><line style="stroke:#181818;stroke-width:1.0;" x1="392.7216" x2="390.2525" y1="166.0267" y2="156.3363"/><line style="stroke:#181818;stroke-width:1.0;" x1="392.7216" x2="386.49" y1="166.0267" y2="161.01"/><line style="stroke:#181818;stroke-width:1.0;" x1="391.7711" x2="396.7878" y1="170.3967" y2="164.1651"/></g><!--MD5=[e21ff97ee4e6ce572ccc0e04f65d21b3]
link HumanResources.EmployeeDepartmentHistory to HumanResources.Shift--><g id="link_HumanResources.EmployeeDepartmentHistory_HumanResources.Shift"><path codeLine="68" d="M234.62,167.98 C205.77,212.81 170.45,267.71 142.56,311.07 " fill="none" id="HumanResources.EmployeeDepartmentHistory-HumanResources.Shift" style="stroke:#181818;stroke-width:1.0;"/><line style="stroke:#181818;stroke-width:1.0;" x1="143.6781" x2="136.9501" y1="316.7301" y2="312.4019"/><line style="stroke:#181818;stroke-width:1.0;" x1="145.3012" x2="138.5732" y1="314.2071" y2="309.8789"/><line style="stroke:#181818;stroke-width:1.0;" x1="142.4782" x2="138.15" y1="311.202" y2="317.93"/><line style="stroke:#181818;stroke-width:1.0;" x1="234.7153" x2="234.0071" y1="167.8138" y2="157.8389"/><line style="stroke:#181818;stroke-width:1.0;" x1="234.7153" x2="244.0929" y1="167.8138" y2="164.3411"/><line style="stroke:#181818;stroke-width:1.0;" x1="234.7153" x2="239.05" y1="167.8138" y2="161.09"/><line style="stroke:#181818;stroke-width:1.0;" x1="230.2697" x2="236.9935" y1="167.3274" y2="171.6622"/></g><!--MD5=[24f8461ca85be59ce51750117a4e21b1]
link HumanResources.EmployeePayHistory to HumanResources.Employee--><g id="link_HumanResources.EmployeePayHistory_HumanResources.Employee"><path codeLine="69" d="M625,160.46 C625,176.61 625,194.31 625,212.46 " fill="none" id="HumanResources.EmployeePayHistory-HumanResources.Employee" style="stroke:#181818;stroke-width:1.0;"/><line style="stroke:#181818;stroke-width:1.0;" x1="629" x2="621" y1="216.83" y2="216.83"/><line style="stroke:#181818;stroke-width:1.0;" x1="629" x2="621" y1="213.83" y2="213.83"/><line style="stroke:#181818;stroke-width:1.0;" x1="625" x2="625" y1="212.83" y2="220.83"/><line style="stroke:#181818;stroke-width:1.0;" x1="625" x2="619" y1="160.33" y2="152.33"/><line style="stroke:#181818;stroke-width:1.0;" x1="625" x2="631" y1="160.33" y2="152.33"/><line style="stroke:#181818;stroke-width:1.0;" x1="625" x2="625" y1="160.33" y2="152.33"/><line style="stroke:#181818;stroke-width:1.0;" x1="621" x2="629" y1="162.33" y2="162.33"/></g><!--MD5=[2893cbce34741a8695fcc038c23c44b0]
link HumanResources.JobCandidate to HumanResources.Employee--><g id="link_HumanResources.JobCandidate_HumanResources.Employee"><path codeLine="70" d="M853.6,149.33 C820.41,183.54 778.55,226.7 739.74,266.71 " fill="none" id="HumanResources.JobCandidate-HumanResources.Employee" style="stroke:#181818;stroke-width:1.0;"/><line style="stroke:#181818;stroke-width:1.0;" x1="739.6962" x2="733.9543" y1="272.5043" y2="266.9338"/><line style="stroke:#181818;stroke-width:1.0;" x1="741.7851" x2="736.0432" y1="270.3511" y2="264.7806"/><line style="stroke:#181818;stroke-width:1.0;" x1="739.6105" x2="734.04" y1="266.8481" y2="272.59"/><line style="stroke:#181818;stroke-width:1.0;" x1="853.9795" x2="855.2436" y1="148.9419" y2="139.0221"/><line style="stroke:#181818;stroke-width:1.0;" x1="853.9795" x2="863.8564" y1="148.9419" y2="147.3779"/><line style="stroke:#181818;stroke-width:1.0;" x1="853.9795" x2="859.55" y1="148.9419" y2="143.2"/><line style="stroke:#181818;stroke-width:1.0;" x1="849.7159" x2="855.4578" y1="147.5921" y2="153.1626"/></g><!--MD5=[c4604d3aa8fe252803d43eefec7c7eb3]
@startuml
!define primary_key(x) <b><color:#b8861b><&key></color> x</b>
!define foreign_key(x) <color:#aaaaaa><&key></color> x
!define column(x) <color:#efefef><&media-record></color> x
!define table(x) entity x << (T, white) >>

table( HumanResources.Shift )
{
   primary_key( ShiftID ): tinyint <<PK>>
   column( Name ): nvarchar
   column( StartTime ): time
   column( EndTime ): time
   column( ModifiedDate ): datetime
}
table( HumanResources.Department )
{
   primary_key( DepartmentID ): smallint <<PK>>
   column( Name ): nvarchar
   column( GroupName ): nvarchar
   column( ModifiedDate ): datetime
}
table( HumanResources.Employee )
{
   primary_key( BusinessEntityID ): int <<PK>>
   column( NationalIDNumber ): nvarchar
   column( LoginID ): nvarchar
   column( OrganizationNode ): hierarchyid
   column( OrganizationLevel ): smallint
   column( JobTitle ): nvarchar
   column( BirthDate ): date
   column( MaritalStatus ): nchar
   column( Gender ): nchar
   column( HireDate ): date
   column( SalariedFlag ): bit
   column( VacationHours ): smallint
   column( SickLeaveHours ): smallint
   column( CurrentFlag ): bit
   column( rowguid ): uniqueidentifier
   column( ModifiedDate ): datetime
}
table( HumanResources.EmployeeDepartmentHistory )
{
   primary_key( BusinessEntityID ): int <<PK>>
   primary_key( DepartmentID ): smallint <<PK>>
   primary_key( ShiftID ): tinyint <<PK>>
   primary_key( StartDate ): date <<PK>>
   column( EndDate ): date
   column( ModifiedDate ): datetime
}
table( HumanResources.EmployeePayHistory )
{
   primary_key( BusinessEntityID ): int <<PK>>
   primary_key( RateChangeDate ): datetime <<PK>>
   column( Rate ): money
   column( PayFrequency ): tinyint
   column( ModifiedDate ): datetime
}
table( HumanResources.JobCandidate )
{
   primary_key( JobCandidateID ): int <<PK>>
   foreign_key( BusinessEntityID ): int <<FK>>
   column( Resume ): xml
   column( ModifiedDate ): datetime
}
' *** Define Table Relationships
HumanResources.EmployeeDepartmentHistory }|- -|| HumanResources.Department
HumanResources.EmployeeDepartmentHistory }|- -|| HumanResources.Employee
HumanResources.EmployeeDepartmentHistory }|- -|| HumanResources.Shift
HumanResources.EmployeePayHistory }|- -|| HumanResources.Employee
HumanResources.JobCandidate }|- -|| HumanResources.Employee
@enduml

@startuml

entity HumanResources.Shift << (T, white) >>
{
   <b><color:#b8861b><&key></color> ShiftID</b>: tinyint <<PK>>
   <color:#efefef><&media-record></color> Name: nvarchar
   <color:#efefef><&media-record></color> StartTime: time
   <color:#efefef><&media-record></color> EndTime: time
   <color:#efefef><&media-record></color> ModifiedDate: datetime
}
entity HumanResources.Department << (T, white) >>
{
   <b><color:#b8861b><&key></color> DepartmentID</b>: smallint <<PK>>
   <color:#efefef><&media-record></color> Name: nvarchar
   <color:#efefef><&media-record></color> GroupName: nvarchar
   <color:#efefef><&media-record></color> ModifiedDate: datetime
}
entity HumanResources.Employee << (T, white) >>
{
   <b><color:#b8861b><&key></color> BusinessEntityID</b>: int <<PK>>
   <color:#efefef><&media-record></color> NationalIDNumber: nvarchar
   <color:#efefef><&media-record></color> LoginID: nvarchar
   <color:#efefef><&media-record></color> OrganizationNode: hierarchyid
   <color:#efefef><&media-record></color> OrganizationLevel: smallint
   <color:#efefef><&media-record></color> JobTitle: nvarchar
   <color:#efefef><&media-record></color> BirthDate: date
   <color:#efefef><&media-record></color> MaritalStatus: nchar
   <color:#efefef><&media-record></color> Gender: nchar
   <color:#efefef><&media-record></color> HireDate: date
   <color:#efefef><&media-record></color> SalariedFlag: bit
   <color:#efefef><&media-record></color> VacationHours: smallint
   <color:#efefef><&media-record></color> SickLeaveHours: smallint
   <color:#efefef><&media-record></color> CurrentFlag: bit
   <color:#efefef><&media-record></color> rowguid: uniqueidentifier
   <color:#efefef><&media-record></color> ModifiedDate: datetime
}
entity HumanResources.EmployeeDepartmentHistory << (T, white) >>
{
   <b><color:#b8861b><&key></color> BusinessEntityID</b>: int <<PK>>
   <b><color:#b8861b><&key></color> DepartmentID</b>: smallint <<PK>>
   <b><color:#b8861b><&key></color> ShiftID</b>: tinyint <<PK>>
   <b><color:#b8861b><&key></color> StartDate</b>: date <<PK>>
   <color:#efefef><&media-record></color> EndDate: date
   <color:#efefef><&media-record></color> ModifiedDate: datetime
}
entity HumanResources.EmployeePayHistory << (T, white) >>
{
   <b><color:#b8861b><&key></color> BusinessEntityID</b>: int <<PK>>
   <b><color:#b8861b><&key></color> RateChangeDate</b>: datetime <<PK>>
   <color:#efefef><&media-record></color> Rate: money
   <color:#efefef><&media-record></color> PayFrequency: tinyint
   <color:#efefef><&media-record></color> ModifiedDate: datetime
}
entity HumanResources.JobCandidate << (T, white) >>
{
   <b><color:#b8861b><&key></color> JobCandidateID</b>: int <<PK>>
   <color:#aaaaaa><&key></color> BusinessEntityID: int <<FK>>
   <color:#efefef><&media-record></color> Resume: xml
   <color:#efefef><&media-record></color> ModifiedDate: datetime
}
HumanResources.EmployeeDepartmentHistory }|- -|| HumanResources.Department
HumanResources.EmployeeDepartmentHistory }|- -|| HumanResources.Employee
HumanResources.EmployeeDepartmentHistory }|- -|| HumanResources.Shift
HumanResources.EmployeePayHistory }|- -|| HumanResources.Employee
HumanResources.JobCandidate }|- -|| HumanResources.Employee
@enduml

PlantUML version 1.2022.5(Sat Apr 30 11:55:52 BST 2022)
(GPL source distribution)
Java Runtime: Java(TM) SE Runtime Environment
JVM: Java HotSpot(TM) Client VM
Default Encoding: Cp1252
Language: en
Country: GB
--></g></svg>