<?xml version="1.0" encoding="UTF-8" standalone="no"?><svg xmlns="http://www.w3.org/2000/svg" xmlns:xlink="http://www.w3.org/1999/xlink" contentStyleType="text/css" height="1162px" preserveAspectRatio="none" style="width:1511px;height:1162px;background:#FFFFFF;" version="1.1" viewBox="0 0 1511 1162" width="1511px" zoomAndPan="magnify"><defs/><g><!--MD5=[e4d4e7cb3de6d3f43e41bbb3096ab83d]
class Person.Address--><g id="elem_Person.Address"><rect codeLine="7" fill="#F1F1F1" height="206.4844" id="Person.Address" rx="2.5" ry="2.5" style="stroke:#181818;stroke-width:0.5;" width="200.3333" x="42.5" y="540"/><ellipse cx="87.9167" cy="556" fill="#FFFFFF" rx="11" ry="11" style="stroke:#A80036;stroke-width:1.0;"/><path d="M88.8385,553.3906 L88.8385,560.0469 L89.9948,560.0469 Q90.6042,560.0469 90.862,560.2813 Q91.1198,560.5156 91.1198,560.9063 Q91.1198,561.2813 90.862,561.5156 Q90.6042,561.75 89.9948,561.75 L86.0104,561.75 Q85.3854,561.75 85.1276,561.5156 Q84.8698,561.2813 84.8698,560.8906 Q84.8698,560.5156 85.1276,560.2813 Q85.3854,560.0469 86.0104,560.0469 L87.1354,560.0469 L87.1354,553.3906 L85.2917,553.3906 L85.2917,555 Q85.2917,555.6094 85.0573,555.875 Q84.8229,556.1406 84.4479,556.1406 Q84.0729,556.1406 83.8385,555.875 Q83.6042,555.6094 83.6042,555 L83.6042,551.6875 L92.4167,551.6875 L92.4167,555 Q92.4167,555.6094 92.1745,555.875 Q91.9323,556.1406 91.5573,556.1406 Q91.1823,556.1406 90.9479,555.875 Q90.7135,555.6094 90.7135,555 L90.7135,553.3906 L88.8385,553.3906 Z " fill="#000000"/><text fill="#000000" font-family="sans-serif" font-size="14" lengthAdjust="spacing" textLength="101" x="108.4167" y="561.7285">Person.Address</text><line style="stroke:#181818;stroke-width:0.5;" x1="43.5" x2="241.8333" y1="572" y2="572"/><path d="M55.9167,580.776 C54.3067,580.776 53,582.0827 53,583.6927 C53,583.8794 53,584.066 53.035,584.241 L49.5,587.776 L49.5,590.1094 L53,590.1094 L53,587.776 L55.3333,587.776 L55.3333,586.6094 L55.3683,586.5744 C55.5433,586.6094 55.73,586.6094 55.9167,586.6094 C57.5267,586.6094 58.8333,585.3027 58.8333,583.6927 C58.8333,582.0827 57.5267,580.776 55.9167,580.776 M56.5,581.9427 C57.1417,581.9427 57.6667,582.4677 57.6667,583.1094 C57.6667,583.751 57.1417,584.276 56.5,584.276 C55.8583,584.276 55.3333,583.751 55.3333,583.1094 C55.3333,582.4677 55.8583,581.9427 56.5,581.9427 " fill="#B8861B" style="stroke:;stroke-width:0.0;stroke-dasharray:;"/><text fill="#000000" font-family="sans-serif" font-size="14" font-weight="bold" lengthAdjust="spacing" textLength="72" x="63.8333" y="590.5332">AddressID</text><text fill="#000000" font-family="sans-serif" font-size="14" lengthAdjust="spacing" textLength="61" x="135.8333" y="590.5332">: int «PK»</text><path d="M53,598.3854 C51.0633,598.3854 49.5,599.9488 49.5,601.8854 C49.5,603.8221 51.0633,605.3854 53,605.3854 C54.9367,605.3854 56.5,603.8221 56.5,601.8854 C56.5,599.9488 54.9367,598.3854 53,598.3854 " fill="#EFEFEF" style="stroke:;stroke-width:0.0;stroke-dasharray:;"/><text fill="#000000" font-family="sans-serif" font-size="14" lengthAdjust="spacing" textLength="151" x="63.8333" y="608.1426">AddressLine1: nvarchar</text><path d="M53,615.9948 C51.0633,615.9948 49.5,617.5581 49.5,619.4948 C49.5,621.4315 51.0633,622.9948 53,622.9948 C54.9367,622.9948 56.5,621.4315 56.5,619.4948 C56.5,617.5581 54.9367,615.9948 53,615.9948 " fill="#EFEFEF" style="stroke:;stroke-width:0.0;stroke-dasharray:;"/><text fill="#000000" font-family="sans-serif" font-size="14" lengthAdjust="spacing" textLength="151" x="63.8333" y="625.752">AddressLine2: nvarchar</text><path d="M53,633.6042 C51.0633,633.6042 49.5,635.1675 49.5,637.1042 C49.5,639.0408 51.0633,640.6042 53,640.6042 C54.9367,640.6042 56.5,639.0408 56.5,637.1042 C56.5,635.1675 54.9367,633.6042 53,633.6042 " fill="#EFEFEF" style="stroke:;stroke-width:0.0;stroke-dasharray:;"/><text fill="#000000" font-family="sans-serif" font-size="14" lengthAdjust="spacing" textLength="88" x="63.8333" y="643.3613">City: nvarchar</text><path d="M55.9167,651.2135 C54.3067,651.2135 53,652.5202 53,654.1302 C53,654.3169 53,654.5035 53.035,654.6785 L49.5,658.2135 L49.5,660.5469 L53,660.5469 L53,658.2135 L55.3333,658.2135 L55.3333,657.0469 L55.3683,657.0119 C55.5433,657.0469 55.73,657.0469 55.9167,657.0469 C57.5267,657.0469 58.8333,655.7402 58.8333,654.1302 C58.8333,652.5202 57.5267,651.2135 55.9167,651.2135 M56.5,652.3802 C57.1417,652.3802 57.6667,652.9052 57.6667,653.5469 C57.6667,654.1885 57.1417,654.7135 56.5,654.7135 C55.8583,654.7135 55.3333,654.1885 55.3333,653.5469 C55.3333,652.9052 55.8583,652.3802 56.5,652.3802 " fill="#AAAAAA" style="stroke:;stroke-width:0.0;stroke-dasharray:;"/><text fill="#000000" font-family="sans-serif" font-size="14" lengthAdjust="spacing" textLength="162" x="63.8333" y="660.9707">StateProvinceID: int «FK»</text><path d="M53,668.8229 C51.0633,668.8229 49.5,670.3863 49.5,672.3229 C49.5,674.2596 51.0633,675.8229 53,675.8229 C54.9367,675.8229 56.5,674.2596 56.5,672.3229 C56.5,670.3863 54.9367,668.8229 53,668.8229 " fill="#EFEFEF" style="stroke:;stroke-width:0.0;stroke-dasharray:;"/><text fill="#000000" font-family="sans-serif" font-size="14" lengthAdjust="spacing" textLength="137" x="63.8333" y="678.5801">PostalCode: nvarchar</text><path d="M53,686.4323 C51.0633,686.4323 49.5,687.9956 49.5,689.9323 C49.5,691.869 51.0633,693.4323 53,693.4323 C54.9367,693.4323 56.5,691.869 56.5,689.9323 C56.5,687.9956 54.9367,686.4323 53,686.4323 " fill="#EFEFEF" style="stroke:;stroke-width:0.0;stroke-dasharray:;"/><text fill="#000000" font-family="sans-serif" font-size="14" lengthAdjust="spacing" textLength="173" x="63.8333" y="696.1895">SpatialLocation: geography</text><path d="M53,704.0417 C51.0633,704.0417 49.5,705.605 49.5,707.5417 C49.5,709.4783 51.0633,711.0417 53,711.0417 C54.9367,711.0417 56.5,709.4783 56.5,707.5417 C56.5,705.605 54.9367,704.0417 53,704.0417 " fill="#EFEFEF" style="stroke:;stroke-width:0.0;stroke-dasharray:;"/><text fill="#000000" font-family="sans-serif" font-size="14" lengthAdjust="spacing" textLength="154" x="63.8333" y="713.7988">rowguid: uniqueidentifier</text><path d="M53,721.651 C51.0633,721.651 49.5,723.2144 49.5,725.151 C49.5,727.0877 51.0633,728.651 53,728.651 C54.9367,728.651 56.5,727.0877 56.5,725.151 C56.5,723.2144 54.9367,721.651 53,721.651 " fill="#EFEFEF" style="stroke:;stroke-width:0.0;stroke-dasharray:;"/><text fill="#000000" font-family="sans-serif" font-size="14" lengthAdjust="spacing" textLength="145" x="63.8333" y="731.4082">ModifiedDate: datetime</text><line style="stroke:#181818;stroke-width:0.5;" x1="43.5" x2="241.8333" y1="738.4844" y2="738.4844"/></g><!--MD5=[1776341277c4d485d7bd3d2fe7a8c019]
class Person.AddressType--><g id="elem_Person.AddressType"><rect codeLine="19" fill="#F1F1F1" height="118.4375" id="Person.AddressType" rx="2.5" ry="2.5" style="stroke:#181818;stroke-width:0.5;" width="193.3333" x="278" y="584"/><ellipse cx="305.75" cy="600" fill="#FFFFFF" rx="11" ry="11" style="stroke:#A80036;stroke-width:1.0;"/><path d="M306.6719,597.3906 L306.6719,604.0469 L307.8281,604.0469 Q308.4375,604.0469 308.6953,604.2813 Q308.9531,604.5156 308.9531,604.9063 Q308.9531,605.2813 308.6953,605.5156 Q308.4375,605.75 307.8281,605.75 L303.8438,605.75 Q303.2188,605.75 302.9609,605.5156 Q302.7031,605.2813 302.7031,604.8906 Q302.7031,604.5156 302.9609,604.2813 Q303.2188,604.0469 303.8438,604.0469 L304.9688,604.0469 L304.9688,597.3906 L303.125,597.3906 L303.125,599 Q303.125,599.6094 302.8906,599.875 Q302.6563,600.1406 302.2813,600.1406 Q301.9063,600.1406 301.6719,599.875 Q301.4375,599.6094 301.4375,599 L301.4375,595.6875 L310.25,595.6875 L310.25,599 Q310.25,599.6094 310.0078,599.875 Q309.7656,600.1406 309.3906,600.1406 Q309.0156,600.1406 308.7813,599.875 Q308.5469,599.6094 308.5469,599 L308.5469,597.3906 L306.6719,597.3906 Z " fill="#000000"/><text fill="#000000" font-family="sans-serif" font-size="14" lengthAdjust="spacing" textLength="133" x="322.5833" y="605.7285">Person.AddressType</text><line style="stroke:#181818;stroke-width:0.5;" x1="279" x2="470.3333" y1="616" y2="616"/><path d="M291.4167,624.776 C289.8067,624.776 288.5,626.0827 288.5,627.6927 C288.5,627.8794 288.5,628.066 288.535,628.241 L285,631.776 L285,634.1094 L288.5,634.1094 L288.5,631.776 L290.8333,631.776 L290.8333,630.6094 L290.8683,630.5744 C291.0433,630.6094 291.23,630.6094 291.4167,630.6094 C293.0267,630.6094 294.3333,629.3027 294.3333,627.6927 C294.3333,626.0827 293.0267,624.776 291.4167,624.776 M292,625.9427 C292.6417,625.9427 293.1667,626.4677 293.1667,627.1094 C293.1667,627.751 292.6417,628.276 292,628.276 C291.3583,628.276 290.8333,627.751 290.8333,627.1094 C290.8333,626.4677 291.3583,625.9427 292,625.9427 " fill="#B8861B" style="stroke:;stroke-width:0.0;stroke-dasharray:;"/><text fill="#000000" font-family="sans-serif" font-size="14" font-weight="bold" lengthAdjust="spacing" textLength="105" x="299.3333" y="634.5332">AddressTypeID</text><text fill="#000000" font-family="sans-serif" font-size="14" lengthAdjust="spacing" textLength="61" x="404.3333" y="634.5332">: int «PK»</text><path d="M288.5,642.3854 C286.5633,642.3854 285,643.9488 285,645.8854 C285,647.8221 286.5633,649.3854 288.5,649.3854 C290.4367,649.3854 292,647.8221 292,645.8854 C292,643.9488 290.4367,642.3854 288.5,642.3854 " fill="#EFEFEF" style="stroke:;stroke-width:0.0;stroke-dasharray:;"/><text fill="#000000" font-family="sans-serif" font-size="14" lengthAdjust="spacing" textLength="100" x="299.3333" y="652.1426">Name: nvarchar</text><path d="M288.5,659.9948 C286.5633,659.9948 285,661.5581 285,663.4948 C285,665.4315 286.5633,666.9948 288.5,666.9948 C290.4367,666.9948 292,665.4315 292,663.4948 C292,661.5581 290.4367,659.9948 288.5,659.9948 " fill="#EFEFEF" style="stroke:;stroke-width:0.0;stroke-dasharray:;"/><text fill="#000000" font-family="sans-serif" font-size="14" lengthAdjust="spacing" textLength="154" x="299.3333" y="669.752">rowguid: uniqueidentifier</text><path d="M288.5,677.6042 C286.5633,677.6042 285,679.1675 285,681.1042 C285,683.0408 286.5633,684.6042 288.5,684.6042 C290.4367,684.6042 292,683.0408 292,681.1042 C292,679.1675 290.4367,677.6042 288.5,677.6042 " fill="#EFEFEF" style="stroke:;stroke-width:0.0;stroke-dasharray:;"/><text fill="#000000" font-family="sans-serif" font-size="14" lengthAdjust="spacing" textLength="145" x="299.3333" y="687.3613">ModifiedDate: datetime</text><line style="stroke:#181818;stroke-width:0.5;" x1="279" x2="470.3333" y1="694.4375" y2="694.4375"/></g><!--MD5=[c8e7ebf4c13d5be1b1df96c98f5f1bcc]
class Person.StateProvince--><g id="elem_Person.StateProvince"><rect codeLine="26" fill="#F1F1F1" height="188.875" id="Person.StateProvince" rx="2.5" ry="2.5" style="stroke:#181818;stroke-width:0.5;" width="258.3333" x="13.5" y="806"/><ellipse cx="69.9167" cy="822" fill="#FFFFFF" rx="11" ry="11" style="stroke:#A80036;stroke-width:1.0;"/><path d="M70.8385,819.3906 L70.8385,826.0469 L71.9948,826.0469 Q72.6042,826.0469 72.862,826.2813 Q73.1198,826.5156 73.1198,826.9063 Q73.1198,827.2813 72.862,827.5156 Q72.6042,827.75 71.9948,827.75 L68.0104,827.75 Q67.3854,827.75 67.1276,827.5156 Q66.8698,827.2813 66.8698,826.8906 Q66.8698,826.5156 67.1276,826.2813 Q67.3854,826.0469 68.0104,826.0469 L69.1354,826.0469 L69.1354,819.3906 L67.2917,819.3906 L67.2917,821 Q67.2917,821.6094 67.0573,821.875 Q66.8229,822.1406 66.4479,822.1406 Q66.0729,822.1406 65.8385,821.875 Q65.6042,821.6094 65.6042,821 L65.6042,817.6875 L74.4167,817.6875 L74.4167,821 Q74.4167,821.6094 74.1745,821.875 Q73.9323,822.1406 73.5573,822.1406 Q73.1823,822.1406 72.9479,821.875 Q72.7135,821.6094 72.7135,821 L72.7135,819.3906 L70.8385,819.3906 Z " fill="#000000"/><text fill="#000000" font-family="sans-serif" font-size="14" lengthAdjust="spacing" textLength="137" x="90.4167" y="827.7285">Person.StateProvince</text><line style="stroke:#181818;stroke-width:0.5;" x1="14.5" x2="270.8333" y1="838" y2="838"/><path d="M26.9167,846.776 C25.3067,846.776 24,848.0827 24,849.6927 C24,849.8794 24,850.066 24.035,850.241 L20.5,853.776 L20.5,856.1094 L24,856.1094 L24,853.776 L26.3333,853.776 L26.3333,852.6094 L26.3683,852.5744 C26.5433,852.6094 26.73,852.6094 26.9167,852.6094 C28.5267,852.6094 29.8333,851.3027 29.8333,849.6927 C29.8333,848.0827 28.5267,846.776 26.9167,846.776 M27.5,847.9427 C28.1417,847.9427 28.6667,848.4677 28.6667,849.1094 C28.6667,849.751 28.1417,850.276 27.5,850.276 C26.8583,850.276 26.3333,849.751 26.3333,849.1094 C26.3333,848.4677 26.8583,847.9427 27.5,847.9427 " fill="#B8861B" style="stroke:;stroke-width:0.0;stroke-dasharray:;"/><text fill="#000000" font-family="sans-serif" font-size="14" font-weight="bold" lengthAdjust="spacing" textLength="113" x="34.8333" y="856.5332">StateProvinceID</text><text fill="#000000" font-family="sans-serif" font-size="14" lengthAdjust="spacing" textLength="61" x="147.8333" y="856.5332">: int «PK»</text><path d="M24,864.3854 C22.0633,864.3854 20.5,865.9488 20.5,867.8854 C20.5,869.8221 22.0633,871.3854 24,871.3854 C25.9367,871.3854 27.5,869.8221 27.5,867.8854 C27.5,865.9488 25.9367,864.3854 24,864.3854 " fill="#EFEFEF" style="stroke:;stroke-width:0.0;stroke-dasharray:;"/><text fill="#000000" font-family="sans-serif" font-size="14" lengthAdjust="spacing" textLength="166" x="34.8333" y="874.1426">StateProvinceCode: nchar</text><path d="M26.9167,881.9948 C25.3067,881.9948 24,883.3015 24,884.9115 C24,885.0981 24,885.2848 24.035,885.4598 L20.5,888.9948 L20.5,891.3281 L24,891.3281 L24,888.9948 L26.3333,888.9948 L26.3333,887.8281 L26.3683,887.7931 C26.5433,887.8281 26.73,887.8281 26.9167,887.8281 C28.5267,887.8281 29.8333,886.5215 29.8333,884.9115 C29.8333,883.3015 28.5267,881.9948 26.9167,881.9948 M27.5,883.1615 C28.1417,883.1615 28.6667,883.6865 28.6667,884.3281 C28.6667,884.9698 28.1417,885.4948 27.5,885.4948 C26.8583,885.4948 26.3333,884.9698 26.3333,884.3281 C26.3333,883.6865 26.8583,883.1615 27.5,883.1615 " fill="#AAAAAA" style="stroke:;stroke-width:0.0;stroke-dasharray:;"/><text fill="#000000" font-family="sans-serif" font-size="14" lengthAdjust="spacing" textLength="231" x="34.8333" y="891.752">CountryRegionCode: nvarchar «FK»</text><path d="M24,899.6042 C22.0633,899.6042 20.5,901.1675 20.5,903.1042 C20.5,905.0408 22.0633,906.6042 24,906.6042 C25.9367,906.6042 27.5,905.0408 27.5,903.1042 C27.5,901.1675 25.9367,899.6042 24,899.6042 " fill="#EFEFEF" style="stroke:;stroke-width:0.0;stroke-dasharray:;"/><text fill="#000000" font-family="sans-serif" font-size="14" lengthAdjust="spacing" textLength="178" x="34.8333" y="909.3613">IsOnlyStateProvinceFlag: bit</text><path d="M24,917.2135 C22.0633,917.2135 20.5,918.7769 20.5,920.7135 C20.5,922.6502 22.0633,924.2135 24,924.2135 C25.9367,924.2135 27.5,922.6502 27.5,920.7135 C27.5,918.7769 25.9367,917.2135 24,917.2135 " fill="#EFEFEF" style="stroke:;stroke-width:0.0;stroke-dasharray:;"/><text fill="#000000" font-family="sans-serif" font-size="14" lengthAdjust="spacing" textLength="100" x="34.8333" y="926.9707">Name: nvarchar</text><path d="M26.9167,934.8229 C25.3067,934.8229 24,936.1296 24,937.7396 C24,937.9263 24,938.1129 24.035,938.2879 L20.5,941.8229 L20.5,944.1563 L24,944.1563 L24,941.8229 L26.3333,941.8229 L26.3333,940.6563 L26.3683,940.6212 C26.5433,940.6563 26.73,940.6563 26.9167,940.6563 C28.5267,940.6563 29.8333,939.3496 29.8333,937.7396 C29.8333,936.1296 28.5267,934.8229 26.9167,934.8229 M27.5,935.9896 C28.1417,935.9896 28.6667,936.5146 28.6667,937.1563 C28.6667,937.7979 28.1417,938.3229 27.5,938.3229 C26.8583,938.3229 26.3333,937.7979 26.3333,937.1563 C26.3333,936.5146 26.8583,935.9896 27.5,935.9896 " fill="#AAAAAA" style="stroke:;stroke-width:0.0;stroke-dasharray:;"/><text fill="#000000" font-family="sans-serif" font-size="14" lengthAdjust="spacing" textLength="128" x="34.8333" y="944.5801">TerritoryID: int «FK»</text><path d="M24,952.4323 C22.0633,952.4323 20.5,953.9956 20.5,955.9323 C20.5,957.869 22.0633,959.4323 24,959.4323 C25.9367,959.4323 27.5,957.869 27.5,955.9323 C27.5,953.9956 25.9367,952.4323 24,952.4323 " fill="#EFEFEF" style="stroke:;stroke-width:0.0;stroke-dasharray:;"/><text fill="#000000" font-family="sans-serif" font-size="14" lengthAdjust="spacing" textLength="154" x="34.8333" y="962.1895">rowguid: uniqueidentifier</text><path d="M24,970.0417 C22.0633,970.0417 20.5,971.605 20.5,973.5417 C20.5,975.4783 22.0633,977.0417 24,977.0417 C25.9367,977.0417 27.5,975.4783 27.5,973.5417 C27.5,971.605 25.9367,970.0417 24,970.0417 " fill="#EFEFEF" style="stroke:;stroke-width:0.0;stroke-dasharray:;"/><text fill="#000000" font-family="sans-serif" font-size="14" lengthAdjust="spacing" textLength="145" x="34.8333" y="979.7988">ModifiedDate: datetime</text><line style="stroke:#181818;stroke-width:0.5;" x1="14.5" x2="270.8333" y1="986.875" y2="986.875"/></g><!--MD5=[5ae2ae66c46b3199832dd142b8f441f6]
class Person.BusinessEntity--><g id="elem_Person.BusinessEntity"><rect codeLine="37" fill="#F1F1F1" height="100.8281" id="Person.BusinessEntity" rx="2.5" ry="2.5" style="stroke:#181818;stroke-width:0.5;" width="206.3333" x="506.5" y="592.5"/><ellipse cx="536.5" cy="608.5" fill="#FFFFFF" rx="11" ry="11" style="stroke:#A80036;stroke-width:1.0;"/><path d="M537.4219,605.8906 L537.4219,612.5469 L538.5781,612.5469 Q539.1875,612.5469 539.4453,612.7813 Q539.7031,613.0156 539.7031,613.4063 Q539.7031,613.7813 539.4453,614.0156 Q539.1875,614.25 538.5781,614.25 L534.5938,614.25 Q533.9688,614.25 533.7109,614.0156 Q533.4531,613.7813 533.4531,613.3906 Q533.4531,613.0156 533.7109,612.7813 Q533.9688,612.5469 534.5938,612.5469 L535.7188,612.5469 L535.7188,605.8906 L533.875,605.8906 L533.875,607.5 Q533.875,608.1094 533.6406,608.375 Q533.4063,608.6406 533.0313,608.6406 Q532.6563,608.6406 532.4219,608.375 Q532.1875,608.1094 532.1875,607.5 L532.1875,604.1875 L541,604.1875 L541,607.5 Q541,608.1094 540.7578,608.375 Q540.5156,608.6406 540.1406,608.6406 Q539.7656,608.6406 539.5313,608.375 Q539.2969,608.1094 539.2969,607.5 L539.2969,605.8906 L537.4219,605.8906 Z " fill="#000000"/><text fill="#000000" font-family="sans-serif" font-size="14" lengthAdjust="spacing" textLength="141" x="553.8333" y="614.2285">Person.BusinessEntity</text><line style="stroke:#181818;stroke-width:0.5;" x1="507.5" x2="711.8333" y1="624.5" y2="624.5"/><path d="M519.9167,633.276 C518.3067,633.276 517,634.5827 517,636.1927 C517,636.3794 517,636.566 517.035,636.741 L513.5,640.276 L513.5,642.6094 L517,642.6094 L517,640.276 L519.3333,640.276 L519.3333,639.1094 L519.3683,639.0744 C519.5433,639.1094 519.73,639.1094 519.9167,639.1094 C521.5267,639.1094 522.8333,637.8027 522.8333,636.1927 C522.8333,634.5827 521.5267,633.276 519.9167,633.276 M520.5,634.4427 C521.1417,634.4427 521.6667,634.9677 521.6667,635.6094 C521.6667,636.251 521.1417,636.776 520.5,636.776 C519.8583,636.776 519.3333,636.251 519.3333,635.6094 C519.3333,634.9677 519.8583,634.4427 520.5,634.4427 " fill="#B8861B" style="stroke:;stroke-width:0.0;stroke-dasharray:;"/><text fill="#000000" font-family="sans-serif" font-size="14" font-weight="bold" lengthAdjust="spacing" textLength="118" x="527.8333" y="643.0332">BusinessEntityID</text><text fill="#000000" font-family="sans-serif" font-size="14" lengthAdjust="spacing" textLength="61" x="645.8333" y="643.0332">: int «PK»</text><path d="M517,650.8854 C515.0633,650.8854 513.5,652.4488 513.5,654.3854 C513.5,656.3221 515.0633,657.8854 517,657.8854 C518.9367,657.8854 520.5,656.3221 520.5,654.3854 C520.5,652.4488 518.9367,650.8854 517,650.8854 " fill="#EFEFEF" style="stroke:;stroke-width:0.0;stroke-dasharray:;"/><text fill="#000000" font-family="sans-serif" font-size="14" lengthAdjust="spacing" textLength="154" x="527.8333" y="660.6426">rowguid: uniqueidentifier</text><path d="M517,668.4948 C515.0633,668.4948 513.5,670.0581 513.5,671.9948 C513.5,673.9315 515.0633,675.4948 517,675.4948 C518.9367,675.4948 520.5,673.9315 520.5,671.9948 C520.5,670.0581 518.9367,668.4948 517,668.4948 " fill="#EFEFEF" style="stroke:;stroke-width:0.0;stroke-dasharray:;"/><text fill="#000000" font-family="sans-serif" font-size="14" lengthAdjust="spacing" textLength="145" x="527.8333" y="678.252">ModifiedDate: datetime</text><line style="stroke:#181818;stroke-width:0.5;" x1="507.5" x2="711.8333" y1="685.3281" y2="685.3281"/></g><!--MD5=[01790d3b96157750de9e72fda63ba482]
class Person.BusinessEntityAddress--><g id="elem_Person.BusinessEntityAddress"><rect codeLine="43" fill="#F1F1F1" height="136.0469" id="Person.BusinessEntityAddress" rx="2.5" ry="2.5" style="stroke:#181818;stroke-width:0.5;" width="225" x="262" y="273.5"/><ellipse cx="277" cy="289.5" fill="#FFFFFF" rx="11" ry="11" style="stroke:#A80036;stroke-width:1.0;"/><path d="M277.9219,286.8906 L277.9219,293.5469 L279.0781,293.5469 Q279.6875,293.5469 279.9453,293.7813 Q280.2031,294.0156 280.2031,294.4063 Q280.2031,294.7813 279.9453,295.0156 Q279.6875,295.25 279.0781,295.25 L275.0938,295.25 Q274.4688,295.25 274.2109,295.0156 Q273.9531,294.7813 273.9531,294.3906 Q273.9531,294.0156 274.2109,293.7813 Q274.4688,293.5469 275.0938,293.5469 L276.2188,293.5469 L276.2188,286.8906 L274.375,286.8906 L274.375,288.5 Q274.375,289.1094 274.1406,289.375 Q273.9063,289.6406 273.5313,289.6406 Q273.1563,289.6406 272.9219,289.375 Q272.6875,289.1094 272.6875,288.5 L272.6875,285.1875 L281.5,285.1875 L281.5,288.5 Q281.5,289.1094 281.2578,289.375 Q281.0156,289.6406 280.6406,289.6406 Q280.2656,289.6406 280.0313,289.375 Q279.7969,289.1094 279.7969,288.5 L279.7969,286.8906 L277.9219,286.8906 Z " fill="#000000"/><text fill="#000000" font-family="sans-serif" font-size="14" lengthAdjust="spacing" textLength="193" x="291" y="295.2285">Person.BusinessEntityAddress</text><line style="stroke:#181818;stroke-width:0.5;" x1="263" x2="486" y1="305.5" y2="305.5"/><path d="M275.4167,314.276 C273.8067,314.276 272.5,315.5827 272.5,317.1927 C272.5,317.3794 272.5,317.566 272.535,317.741 L269,321.276 L269,323.6094 L272.5,323.6094 L272.5,321.276 L274.8333,321.276 L274.8333,320.1094 L274.8683,320.0744 C275.0433,320.1094 275.23,320.1094 275.4167,320.1094 C277.0267,320.1094 278.3333,318.8027 278.3333,317.1927 C278.3333,315.5827 277.0267,314.276 275.4167,314.276 M276,315.4427 C276.6417,315.4427 277.1667,315.9677 277.1667,316.6094 C277.1667,317.251 276.6417,317.776 276,317.776 C275.3583,317.776 274.8333,317.251 274.8333,316.6094 C274.8333,315.9677 275.3583,315.4427 276,315.4427 " fill="#B8861B" style="stroke:;stroke-width:0.0;stroke-dasharray:;"/><text fill="#000000" font-family="sans-serif" font-size="14" font-weight="bold" lengthAdjust="spacing" textLength="118" x="283.3333" y="324.0332">BusinessEntityID</text><text fill="#000000" font-family="sans-serif" font-size="14" lengthAdjust="spacing" textLength="61" x="401.3333" y="324.0332">: int «PK»</text><path d="M275.4167,331.8854 C273.8067,331.8854 272.5,333.1921 272.5,334.8021 C272.5,334.9888 272.5,335.1754 272.535,335.3504 L269,338.8854 L269,341.2188 L272.5,341.2188 L272.5,338.8854 L274.8333,338.8854 L274.8333,337.7188 L274.8683,337.6838 C275.0433,337.7188 275.23,337.7188 275.4167,337.7188 C277.0267,337.7188 278.3333,336.4121 278.3333,334.8021 C278.3333,333.1921 277.0267,331.8854 275.4167,331.8854 M276,333.0521 C276.6417,333.0521 277.1667,333.5771 277.1667,334.2188 C277.1667,334.8604 276.6417,335.3854 276,335.3854 C275.3583,335.3854 274.8333,334.8604 274.8333,334.2188 C274.8333,333.5771 275.3583,333.0521 276,333.0521 " fill="#B8861B" style="stroke:;stroke-width:0.0;stroke-dasharray:;"/><text fill="#000000" font-family="sans-serif" font-size="14" font-weight="bold" lengthAdjust="spacing" textLength="72" x="283.3333" y="341.6426">AddressID</text><text fill="#000000" font-family="sans-serif" font-size="14" lengthAdjust="spacing" textLength="61" x="355.3333" y="341.6426">: int «PK»</text><path d="M275.4167,349.4948 C273.8067,349.4948 272.5,350.8015 272.5,352.4115 C272.5,352.5981 272.5,352.7848 272.535,352.9598 L269,356.4948 L269,358.8281 L272.5,358.8281 L272.5,356.4948 L274.8333,356.4948 L274.8333,355.3281 L274.8683,355.2931 C275.0433,355.3281 275.23,355.3281 275.4167,355.3281 C277.0267,355.3281 278.3333,354.0215 278.3333,352.4115 C278.3333,350.8015 277.0267,349.4948 275.4167,349.4948 M276,350.6615 C276.6417,350.6615 277.1667,351.1865 277.1667,351.8281 C277.1667,352.4698 276.6417,352.9948 276,352.9948 C275.3583,352.9948 274.8333,352.4698 274.8333,351.8281 C274.8333,351.1865 275.3583,350.6615 276,350.6615 " fill="#B8861B" style="stroke:;stroke-width:0.0;stroke-dasharray:;"/><text fill="#000000" font-family="sans-serif" font-size="14" font-weight="bold" lengthAdjust="spacing" textLength="105" x="283.3333" y="359.252">AddressTypeID</text><text fill="#000000" font-family="sans-serif" font-size="14" lengthAdjust="spacing" textLength="61" x="388.3333" y="359.252">: int «PK»</text><path d="M272.5,367.1042 C270.5633,367.1042 269,368.6675 269,370.6042 C269,372.5408 270.5633,374.1042 272.5,374.1042 C274.4367,374.1042 276,372.5408 276,370.6042 C276,368.6675 274.4367,367.1042 272.5,367.1042 " fill="#EFEFEF" style="stroke:;stroke-width:0.0;stroke-dasharray:;"/><text fill="#000000" font-family="sans-serif" font-size="14" lengthAdjust="spacing" textLength="154" x="283.3333" y="376.8613">rowguid: uniqueidentifier</text><path d="M272.5,384.7135 C270.5633,384.7135 269,386.2769 269,388.2135 C269,390.1502 270.5633,391.7135 272.5,391.7135 C274.4367,391.7135 276,390.1502 276,388.2135 C276,386.2769 274.4367,384.7135 272.5,384.7135 " fill="#EFEFEF" style="stroke:;stroke-width:0.0;stroke-dasharray:;"/><text fill="#000000" font-family="sans-serif" font-size="14" lengthAdjust="spacing" textLength="145" x="283.3333" y="394.4707">ModifiedDate: datetime</text><line style="stroke:#181818;stroke-width:0.5;" x1="263" x2="486" y1="401.5469" y2="401.5469"/></g><!--MD5=[d8766214026c5fd97ad1f967da469502]
class Person.BusinessEntityContact--><g id="elem_Person.BusinessEntityContact"><rect codeLine="51" fill="#F1F1F1" height="136.0469" id="Person.BusinessEntityContact" rx="2.5" ry="2.5" style="stroke:#181818;stroke-width:0.5;" width="222" x="529.5" y="7"/><ellipse cx="544.5" cy="23" fill="#FFFFFF" rx="11" ry="11" style="stroke:#A80036;stroke-width:1.0;"/><path d="M545.4219,20.3906 L545.4219,27.0469 L546.5781,27.0469 Q547.1875,27.0469 547.4453,27.2813 Q547.7031,27.5156 547.7031,27.9063 Q547.7031,28.2813 547.4453,28.5156 Q547.1875,28.75 546.5781,28.75 L542.5938,28.75 Q541.9688,28.75 541.7109,28.5156 Q541.4531,28.2813 541.4531,27.8906 Q541.4531,27.5156 541.7109,27.2813 Q541.9688,27.0469 542.5938,27.0469 L543.7188,27.0469 L543.7188,20.3906 L541.875,20.3906 L541.875,22 Q541.875,22.6094 541.6406,22.875 Q541.4063,23.1406 541.0313,23.1406 Q540.6563,23.1406 540.4219,22.875 Q540.1875,22.6094 540.1875,22 L540.1875,18.6875 L549,18.6875 L549,22 Q549,22.6094 548.7578,22.875 Q548.5156,23.1406 548.1406,23.1406 Q547.7656,23.1406 547.5313,22.875 Q547.2969,22.6094 547.2969,22 L547.2969,20.3906 L545.4219,20.3906 Z " fill="#000000"/><text fill="#000000" font-family="sans-serif" font-size="14" lengthAdjust="spacing" textLength="190" x="558.5" y="28.7285">Person.BusinessEntityContact</text><line style="stroke:#181818;stroke-width:0.5;" x1="530.5" x2="750.5" y1="39" y2="39"/><path d="M542.9167,47.776 C541.3067,47.776 540,49.0827 540,50.6927 C540,50.8794 540,51.066 540.035,51.241 L536.5,54.776 L536.5,57.1094 L540,57.1094 L540,54.776 L542.3333,54.776 L542.3333,53.6094 L542.3683,53.5744 C542.5433,53.6094 542.73,53.6094 542.9167,53.6094 C544.5267,53.6094 545.8333,52.3027 545.8333,50.6927 C545.8333,49.0827 544.5267,47.776 542.9167,47.776 M543.5,48.9427 C544.1417,48.9427 544.6667,49.4677 544.6667,50.1094 C544.6667,50.751 544.1417,51.276 543.5,51.276 C542.8583,51.276 542.3333,50.751 542.3333,50.1094 C542.3333,49.4677 542.8583,48.9427 543.5,48.9427 " fill="#B8861B" style="stroke:;stroke-width:0.0;stroke-dasharray:;"/><text fill="#000000" font-family="sans-serif" font-size="14" font-weight="bold" lengthAdjust="spacing" textLength="118" x="550.8333" y="57.5332">BusinessEntityID</text><text fill="#000000" font-family="sans-serif" font-size="14" lengthAdjust="spacing" textLength="61" x="668.8333" y="57.5332">: int «PK»</text><path d="M542.9167,65.3854 C541.3067,65.3854 540,66.6921 540,68.3021 C540,68.4888 540,68.6754 540.035,68.8504 L536.5,72.3854 L536.5,74.7187 L540,74.7187 L540,72.3854 L542.3333,72.3854 L542.3333,71.2187 L542.3683,71.1837 C542.5433,71.2187 542.73,71.2187 542.9167,71.2187 C544.5267,71.2187 545.8333,69.9121 545.8333,68.3021 C545.8333,66.6921 544.5267,65.3854 542.9167,65.3854 M543.5,66.5521 C544.1417,66.5521 544.6667,67.0771 544.6667,67.7187 C544.6667,68.3604 544.1417,68.8854 543.5,68.8854 C542.8583,68.8854 542.3333,68.3604 542.3333,67.7187 C542.3333,67.0771 542.8583,66.5521 543.5,66.5521 " fill="#B8861B" style="stroke:;stroke-width:0.0;stroke-dasharray:;"/><text fill="#000000" font-family="sans-serif" font-size="14" font-weight="bold" lengthAdjust="spacing" textLength="64" x="550.8333" y="75.1426">PersonID</text><text fill="#000000" font-family="sans-serif" font-size="14" lengthAdjust="spacing" textLength="61" x="614.8333" y="75.1426">: int «PK»</text><path d="M542.9167,82.9948 C541.3067,82.9948 540,84.3015 540,85.9115 C540,86.0981 540,86.2848 540.035,86.4598 L536.5,89.9948 L536.5,92.3281 L540,92.3281 L540,89.9948 L542.3333,89.9948 L542.3333,88.8281 L542.3683,88.7931 C542.5433,88.8281 542.73,88.8281 542.9167,88.8281 C544.5267,88.8281 545.8333,87.5215 545.8333,85.9115 C545.8333,84.3015 544.5267,82.9948 542.9167,82.9948 M543.5,84.1615 C544.1417,84.1615 544.6667,84.6865 544.6667,85.3281 C544.6667,85.9698 544.1417,86.4948 543.5,86.4948 C542.8583,86.4948 542.3333,85.9698 542.3333,85.3281 C542.3333,84.6865 542.8583,84.1615 543.5,84.1615 " fill="#B8861B" style="stroke:;stroke-width:0.0;stroke-dasharray:;"/><text fill="#000000" font-family="sans-serif" font-size="14" font-weight="bold" lengthAdjust="spacing" textLength="101" x="550.8333" y="92.752">ContactTypeID</text><text fill="#000000" font-family="sans-serif" font-size="14" lengthAdjust="spacing" textLength="61" x="651.8333" y="92.752">: int «PK»</text><path d="M540,100.6042 C538.0633,100.6042 536.5,102.1675 536.5,104.1042 C536.5,106.0408 538.0633,107.6042 540,107.6042 C541.9367,107.6042 543.5,106.0408 543.5,104.1042 C543.5,102.1675 541.9367,100.6042 540,100.6042 " fill="#EFEFEF" style="stroke:;stroke-width:0.0;stroke-dasharray:;"/><text fill="#000000" font-family="sans-serif" font-size="14" lengthAdjust="spacing" textLength="154" x="550.8333" y="110.3613">rowguid: uniqueidentifier</text><path d="M540,118.2135 C538.0633,118.2135 536.5,119.7769 536.5,121.7135 C536.5,123.6502 538.0633,125.2135 540,125.2135 C541.9367,125.2135 543.5,123.6502 543.5,121.7135 C543.5,119.7769 541.9367,118.2135 540,118.2135 " fill="#EFEFEF" style="stroke:;stroke-width:0.0;stroke-dasharray:;"/><text fill="#000000" font-family="sans-serif" font-size="14" lengthAdjust="spacing" textLength="145" x="550.8333" y="127.9707">ModifiedDate: datetime</text><line style="stroke:#181818;stroke-width:0.5;" x1="530.5" x2="750.5" y1="135.0469" y2="135.0469"/></g><!--MD5=[99f4ef18baa71115c55335f544dcd31e]
class Person.ContactType--><g id="elem_Person.ContactType"><rect codeLine="59" fill="#F1F1F1" height="100.8281" id="Person.ContactType" rx="2.5" ry="2.5" style="stroke:#181818;stroke-width:0.5;" width="189.3333" x="628" y="291"/><ellipse cx="655.3" cy="307" fill="#FFFFFF" rx="11" ry="11" style="stroke:#A80036;stroke-width:1.0;"/><path d="M656.2219,304.3906 L656.2219,311.0469 L657.3781,311.0469 Q657.9875,311.0469 658.2453,311.2813 Q658.5031,311.5156 658.5031,311.9063 Q658.5031,312.2813 658.2453,312.5156 Q657.9875,312.75 657.3781,312.75 L653.3938,312.75 Q652.7688,312.75 652.5109,312.5156 Q652.2531,312.2813 652.2531,311.8906 Q652.2531,311.5156 652.5109,311.2813 Q652.7688,311.0469 653.3938,311.0469 L654.5188,311.0469 L654.5188,304.3906 L652.675,304.3906 L652.675,306 Q652.675,306.6094 652.4406,306.875 Q652.2063,307.1406 651.8313,307.1406 Q651.4563,307.1406 651.2219,306.875 Q650.9875,306.6094 650.9875,306 L650.9875,302.6875 L659.8,302.6875 L659.8,306 Q659.8,306.6094 659.5578,306.875 Q659.3156,307.1406 658.9406,307.1406 Q658.5656,307.1406 658.3313,306.875 Q658.0969,306.6094 658.0969,306 L658.0969,304.3906 L656.2219,304.3906 Z " fill="#000000"/><text fill="#000000" font-family="sans-serif" font-size="14" lengthAdjust="spacing" textLength="130" x="672.0333" y="312.7285">Person.ContactType</text><line style="stroke:#181818;stroke-width:0.5;" x1="629" x2="816.3333" y1="323" y2="323"/><path d="M641.4167,331.776 C639.8067,331.776 638.5,333.0827 638.5,334.6927 C638.5,334.8794 638.5,335.066 638.535,335.241 L635,338.776 L635,341.1094 L638.5,341.1094 L638.5,338.776 L640.8333,338.776 L640.8333,337.6094 L640.8683,337.5744 C641.0433,337.6094 641.23,337.6094 641.4167,337.6094 C643.0267,337.6094 644.3333,336.3027 644.3333,334.6927 C644.3333,333.0827 643.0267,331.776 641.4167,331.776 M642,332.9427 C642.6417,332.9427 643.1667,333.4677 643.1667,334.1094 C643.1667,334.751 642.6417,335.276 642,335.276 C641.3583,335.276 640.8333,334.751 640.8333,334.1094 C640.8333,333.4677 641.3583,332.9427 642,332.9427 " fill="#B8861B" style="stroke:;stroke-width:0.0;stroke-dasharray:;"/><text fill="#000000" font-family="sans-serif" font-size="14" font-weight="bold" lengthAdjust="spacing" textLength="101" x="649.3333" y="341.5332">ContactTypeID</text><text fill="#000000" font-family="sans-serif" font-size="14" lengthAdjust="spacing" textLength="61" x="750.3333" y="341.5332">: int «PK»</text><path d="M638.5,349.3854 C636.5633,349.3854 635,350.9488 635,352.8854 C635,354.8221 636.5633,356.3854 638.5,356.3854 C640.4367,356.3854 642,354.8221 642,352.8854 C642,350.9488 640.4367,349.3854 638.5,349.3854 " fill="#EFEFEF" style="stroke:;stroke-width:0.0;stroke-dasharray:;"/><text fill="#000000" font-family="sans-serif" font-size="14" lengthAdjust="spacing" textLength="100" x="649.3333" y="359.1426">Name: nvarchar</text><path d="M638.5,366.9948 C636.5633,366.9948 635,368.5581 635,370.4948 C635,372.4315 636.5633,373.9948 638.5,373.9948 C640.4367,373.9948 642,372.4315 642,370.4948 C642,368.5581 640.4367,366.9948 638.5,366.9948 " fill="#EFEFEF" style="stroke:;stroke-width:0.0;stroke-dasharray:;"/><text fill="#000000" font-family="sans-serif" font-size="14" lengthAdjust="spacing" textLength="145" x="649.3333" y="376.752">ModifiedDate: datetime</text><line style="stroke:#181818;stroke-width:0.5;" x1="629" x2="816.3333" y1="383.8281" y2="383.8281"/></g><!--MD5=[59d6ad8eeb75fb82a6b456b0aca3e852]
class Person.CountryRegion--><g id="elem_Person.CountryRegion"><rect codeLine="65" fill="#F1F1F1" height="100.8281" id="Person.CountryRegion" rx="2.5" ry="2.5" style="stroke:#181818;stroke-width:0.5;" width="271.3333" x="7" y="1055"/><ellipse cx="66.4167" cy="1071" fill="#FFFFFF" rx="11" ry="11" style="stroke:#A80036;stroke-width:1.0;"/><path d="M67.3385,1068.3906 L67.3385,1075.0469 L68.4948,1075.0469 Q69.1042,1075.0469 69.362,1075.2813 Q69.6198,1075.5156 69.6198,1075.9063 Q69.6198,1076.2813 69.362,1076.5156 Q69.1042,1076.75 68.4948,1076.75 L64.5104,1076.75 Q63.8854,1076.75 63.6276,1076.5156 Q63.3698,1076.2813 63.3698,1075.8906 Q63.3698,1075.5156 63.6276,1075.2813 Q63.8854,1075.0469 64.5104,1075.0469 L65.6354,1075.0469 L65.6354,1068.3906 L63.7917,1068.3906 L63.7917,1070 Q63.7917,1070.6094 63.5573,1070.875 Q63.3229,1071.1406 62.9479,1071.1406 Q62.5729,1071.1406 62.3385,1070.875 Q62.1042,1070.6094 62.1042,1070 L62.1042,1066.6875 L70.9167,1066.6875 L70.9167,1070 Q70.9167,1070.6094 70.6745,1070.875 Q70.4323,1071.1406 70.0573,1071.1406 Q69.6823,1071.1406 69.4479,1070.875 Q69.2135,1070.6094 69.2135,1070 L69.2135,1068.3906 L67.3385,1068.3906 Z " fill="#000000"/><text fill="#000000" font-family="sans-serif" font-size="14" lengthAdjust="spacing" textLength="144" x="86.9167" y="1076.7285">Person.CountryRegion</text><line style="stroke:#181818;stroke-width:0.5;" x1="8" x2="277.3333" y1="1087" y2="1087"/><path d="M20.4167,1095.776 C18.8067,1095.776 17.5,1097.0827 17.5,1098.6927 C17.5,1098.8794 17.5,1099.066 17.535,1099.241 L14,1102.776 L14,1105.1094 L17.5,1105.1094 L17.5,1102.776 L19.8333,1102.776 L19.8333,1101.6094 L19.8683,1101.5744 C20.0433,1101.6094 20.23,1101.6094 20.4167,1101.6094 C22.0267,1101.6094 23.3333,1100.3027 23.3333,1098.6927 C23.3333,1097.0827 22.0267,1095.776 20.4167,1095.776 M21,1096.9427 C21.6417,1096.9427 22.1667,1097.4677 22.1667,1098.1094 C22.1667,1098.751 21.6417,1099.276 21,1099.276 C20.3583,1099.276 19.8333,1098.751 19.8333,1098.1094 C19.8333,1097.4677 20.3583,1096.9427 21,1096.9427 " fill="#B8861B" style="stroke:;stroke-width:0.0;stroke-dasharray:;"/><text fill="#000000" font-family="sans-serif" font-size="14" font-weight="bold" lengthAdjust="spacing" textLength="142" x="28.3333" y="1105.5332">CountryRegionCode</text><text fill="#000000" font-family="sans-serif" font-size="14" lengthAdjust="spacing" textLength="102" x="170.3333" y="1105.5332">: nvarchar «PK»</text><path d="M17.5,1113.3854 C15.5633,1113.3854 14,1114.9488 14,1116.8854 C14,1118.8221 15.5633,1120.3854 17.5,1120.3854 C19.4367,1120.3854 21,1118.8221 21,1116.8854 C21,1114.9488 19.4367,1113.3854 17.5,1113.3854 " fill="#EFEFEF" style="stroke:;stroke-width:0.0;stroke-dasharray:;"/><text fill="#000000" font-family="sans-serif" font-size="14" lengthAdjust="spacing" textLength="100" x="28.3333" y="1123.1426">Name: nvarchar</text><path d="M17.5,1130.9948 C15.5633,1130.9948 14,1132.5581 14,1134.4948 C14,1136.4315 15.5633,1137.9948 17.5,1137.9948 C19.4367,1137.9948 21,1136.4315 21,1134.4948 C21,1132.5581 19.4367,1130.9948 17.5,1130.9948 " fill="#EFEFEF" style="stroke:;stroke-width:0.0;stroke-dasharray:;"/><text fill="#000000" font-family="sans-serif" font-size="14" lengthAdjust="spacing" textLength="145" x="28.3333" y="1140.752">ModifiedDate: datetime</text><line style="stroke:#181818;stroke-width:0.5;" x1="8" x2="277.3333" y1="1147.8281" y2="1147.8281"/></g><!--MD5=[e4aff5d8df39fb3a1a77fc99f6e805c8]
class Person.EmailAddress--><g id="elem_Person.EmailAddress"><rect codeLine="71" fill="#F1F1F1" height="136.0469" id="Person.EmailAddress" rx="2.5" ry="2.5" style="stroke:#181818;stroke-width:0.5;" width="206.3333" x="786.5" y="7"/><ellipse cx="819.2" cy="23" fill="#FFFFFF" rx="11" ry="11" style="stroke:#A80036;stroke-width:1.0;"/><path d="M820.1219,20.3906 L820.1219,27.0469 L821.2781,27.0469 Q821.8875,27.0469 822.1453,27.2813 Q822.4031,27.5156 822.4031,27.9063 Q822.4031,28.2813 822.1453,28.5156 Q821.8875,28.75 821.2781,28.75 L817.2938,28.75 Q816.6688,28.75 816.4109,28.5156 Q816.1531,28.2813 816.1531,27.8906 Q816.1531,27.5156 816.4109,27.2813 Q816.6688,27.0469 817.2938,27.0469 L818.4188,27.0469 L818.4188,20.3906 L816.575,20.3906 L816.575,22 Q816.575,22.6094 816.3406,22.875 Q816.1063,23.1406 815.7313,23.1406 Q815.3563,23.1406 815.1219,22.875 Q814.8875,22.6094 814.8875,22 L814.8875,18.6875 L823.7,18.6875 L823.7,22 Q823.7,22.6094 823.4578,22.875 Q823.2156,23.1406 822.8406,23.1406 Q822.4656,23.1406 822.2313,22.875 Q821.9969,22.6094 821.9969,22 L821.9969,20.3906 L820.1219,20.3906 Z " fill="#000000"/><text fill="#000000" font-family="sans-serif" font-size="14" lengthAdjust="spacing" textLength="135" x="837.1333" y="28.7285">Person.EmailAddress</text><line style="stroke:#181818;stroke-width:0.5;" x1="787.5" x2="991.8333" y1="39" y2="39"/><path d="M799.9167,47.776 C798.3067,47.776 797,49.0827 797,50.6927 C797,50.8794 797,51.066 797.035,51.241 L793.5,54.776 L793.5,57.1094 L797,57.1094 L797,54.776 L799.3333,54.776 L799.3333,53.6094 L799.3683,53.5744 C799.5433,53.6094 799.73,53.6094 799.9167,53.6094 C801.5267,53.6094 802.8333,52.3027 802.8333,50.6927 C802.8333,49.0827 801.5267,47.776 799.9167,47.776 M800.5,48.9427 C801.1417,48.9427 801.6667,49.4677 801.6667,50.1094 C801.6667,50.751 801.1417,51.276 800.5,51.276 C799.8583,51.276 799.3333,50.751 799.3333,50.1094 C799.3333,49.4677 799.8583,48.9427 800.5,48.9427 " fill="#B8861B" style="stroke:;stroke-width:0.0;stroke-dasharray:;"/><text fill="#000000" font-family="sans-serif" font-size="14" font-weight="bold" lengthAdjust="spacing" textLength="118" x="807.8333" y="57.5332">BusinessEntityID</text><text fill="#000000" font-family="sans-serif" font-size="14" lengthAdjust="spacing" textLength="61" x="925.8333" y="57.5332">: int «PK»</text><path d="M799.9167,65.3854 C798.3067,65.3854 797,66.6921 797,68.3021 C797,68.4888 797,68.6754 797.035,68.8504 L793.5,72.3854 L793.5,74.7187 L797,74.7187 L797,72.3854 L799.3333,72.3854 L799.3333,71.2187 L799.3683,71.1837 C799.5433,71.2187 799.73,71.2187 799.9167,71.2187 C801.5267,71.2187 802.8333,69.9121 802.8333,68.3021 C802.8333,66.6921 801.5267,65.3854 799.9167,65.3854 M800.5,66.5521 C801.1417,66.5521 801.6667,67.0771 801.6667,67.7187 C801.6667,68.3604 801.1417,68.8854 800.5,68.8854 C799.8583,68.8854 799.3333,68.3604 799.3333,67.7187 C799.3333,67.0771 799.8583,66.5521 800.5,66.5521 " fill="#B8861B" style="stroke:;stroke-width:0.0;stroke-dasharray:;"/><text fill="#000000" font-family="sans-serif" font-size="14" font-weight="bold" lengthAdjust="spacing" textLength="109" x="807.8333" y="75.1426">EmailAddressID</text><text fill="#000000" font-family="sans-serif" font-size="14" lengthAdjust="spacing" textLength="61" x="916.8333" y="75.1426">: int «PK»</text><path d="M797,82.9948 C795.0633,82.9948 793.5,84.5581 793.5,86.4948 C793.5,88.4315 795.0633,89.9948 797,89.9948 C798.9367,89.9948 800.5,88.4315 800.5,86.4948 C800.5,84.5581 798.9367,82.9948 797,82.9948 " fill="#EFEFEF" style="stroke:;stroke-width:0.0;stroke-dasharray:;"/><text fill="#000000" font-family="sans-serif" font-size="14" lengthAdjust="spacing" textLength="150" x="807.8333" y="92.752">EmailAddress: nvarchar</text><path d="M797,100.6042 C795.0633,100.6042 793.5,102.1675 793.5,104.1042 C793.5,106.0408 795.0633,107.6042 797,107.6042 C798.9367,107.6042 800.5,106.0408 800.5,104.1042 C800.5,102.1675 798.9367,100.6042 797,100.6042 " fill="#EFEFEF" style="stroke:;stroke-width:0.0;stroke-dasharray:;"/><text fill="#000000" font-family="sans-serif" font-size="14" lengthAdjust="spacing" textLength="154" x="807.8333" y="110.3613">rowguid: uniqueidentifier</text><path d="M797,118.2135 C795.0633,118.2135 793.5,119.7769 793.5,121.7135 C793.5,123.6502 795.0633,125.2135 797,125.2135 C798.9367,125.2135 800.5,123.6502 800.5,121.7135 C800.5,119.7769 798.9367,118.2135 797,118.2135 " fill="#EFEFEF" style="stroke:;stroke-width:0.0;stroke-dasharray:;"/><text fill="#000000" font-family="sans-serif" font-size="14" lengthAdjust="spacing" textLength="145" x="807.8333" y="127.9707">ModifiedDate: datetime</text><line style="stroke:#181818;stroke-width:0.5;" x1="787.5" x2="991.8333" y1="135.0469" y2="135.0469"/></g><!--MD5=[d0db970ac9b5eeeb38adc5f507f476d5]
class Person.Password--><g id="elem_Person.Password"><rect codeLine="79" fill="#F1F1F1" height="136.0469" id="Person.Password" rx="2.5" ry="2.5" style="stroke:#181818;stroke-width:0.5;" width="206.3333" x="1027.5" y="7"/><ellipse cx="1071.45" cy="23" fill="#FFFFFF" rx="11" ry="11" style="stroke:#A80036;stroke-width:1.0;"/><path d="M1072.3719,20.3906 L1072.3719,27.0469 L1073.5281,27.0469 Q1074.1375,27.0469 1074.3953,27.2813 Q1074.6531,27.5156 1074.6531,27.9063 Q1074.6531,28.2813 1074.3953,28.5156 Q1074.1375,28.75 1073.5281,28.75 L1069.5438,28.75 Q1068.9188,28.75 1068.6609,28.5156 Q1068.4031,28.2813 1068.4031,27.8906 Q1068.4031,27.5156 1068.6609,27.2813 Q1068.9188,27.0469 1069.5438,27.0469 L1070.6688,27.0469 L1070.6688,20.3906 L1068.825,20.3906 L1068.825,22 Q1068.825,22.6094 1068.5906,22.875 Q1068.3563,23.1406 1067.9813,23.1406 Q1067.6063,23.1406 1067.3719,22.875 Q1067.1375,22.6094 1067.1375,22 L1067.1375,18.6875 L1075.95,18.6875 L1075.95,22 Q1075.95,22.6094 1075.7078,22.875 Q1075.4656,23.1406 1075.0906,23.1406 Q1074.7156,23.1406 1074.4813,22.875 Q1074.2469,22.6094 1074.2469,22 L1074.2469,20.3906 L1072.3719,20.3906 Z " fill="#000000"/><text fill="#000000" font-family="sans-serif" font-size="14" lengthAdjust="spacing" textLength="110" x="1091.8833" y="28.7285">Person.Password</text><line style="stroke:#181818;stroke-width:0.5;" x1="1028.5" x2="1232.8333" y1="39" y2="39"/><path d="M1040.9167,47.776 C1039.3067,47.776 1038,49.0827 1038,50.6927 C1038,50.8794 1038,51.066 1038.035,51.241 L1034.5,54.776 L1034.5,57.1094 L1038,57.1094 L1038,54.776 L1040.3333,54.776 L1040.3333,53.6094 L1040.3683,53.5744 C1040.5433,53.6094 1040.73,53.6094 1040.9167,53.6094 C1042.5267,53.6094 1043.8333,52.3027 1043.8333,50.6927 C1043.8333,49.0827 1042.5267,47.776 1040.9167,47.776 M1041.5,48.9427 C1042.1417,48.9427 1042.6667,49.4677 1042.6667,50.1094 C1042.6667,50.751 1042.1417,51.276 1041.5,51.276 C1040.8583,51.276 1040.3333,50.751 1040.3333,50.1094 C1040.3333,49.4677 1040.8583,48.9427 1041.5,48.9427 " fill="#B8861B" style="stroke:;stroke-width:0.0;stroke-dasharray:;"/><text fill="#000000" font-family="sans-serif" font-size="14" font-weight="bold" lengthAdjust="spacing" textLength="118" x="1048.8333" y="57.5332">BusinessEntityID</text><text fill="#000000" font-family="sans-serif" font-size="14" lengthAdjust="spacing" textLength="61" x="1166.8333" y="57.5332">: int «PK»</text><path d="M1038,65.3854 C1036.0633,65.3854 1034.5,66.9487 1034.5,68.8854 C1034.5,70.8221 1036.0633,72.3854 1038,72.3854 C1039.9367,72.3854 1041.5,70.8221 1041.5,68.8854 C1041.5,66.9487 1039.9367,65.3854 1038,65.3854 " fill="#EFEFEF" style="stroke:;stroke-width:0.0;stroke-dasharray:;"/><text fill="#000000" font-family="sans-serif" font-size="14" lengthAdjust="spacing" textLength="149" x="1048.8333" y="75.1426">PasswordHash: varchar</text><path d="M1038,82.9948 C1036.0633,82.9948 1034.5,84.5581 1034.5,86.4948 C1034.5,88.4315 1036.0633,89.9948 1038,89.9948 C1039.9367,89.9948 1041.5,88.4315 1041.5,86.4948 C1041.5,84.5581 1039.9367,82.9948 1038,82.9948 " fill="#EFEFEF" style="stroke:;stroke-width:0.0;stroke-dasharray:;"/><text fill="#000000" font-family="sans-serif" font-size="14" lengthAdjust="spacing" textLength="141" x="1048.8333" y="92.752">PasswordSalt: varchar</text><path d="M1038,100.6042 C1036.0633,100.6042 1034.5,102.1675 1034.5,104.1042 C1034.5,106.0408 1036.0633,107.6042 1038,107.6042 C1039.9367,107.6042 1041.5,106.0408 1041.5,104.1042 C1041.5,102.1675 1039.9367,100.6042 1038,100.6042 " fill="#EFEFEF" style="stroke:;stroke-width:0.0;stroke-dasharray:;"/><text fill="#000000" font-family="sans-serif" font-size="14" lengthAdjust="spacing" textLength="154" x="1048.8333" y="110.3613">rowguid: uniqueidentifier</text><path d="M1038,118.2135 C1036.0633,118.2135 1034.5,119.7769 1034.5,121.7135 C1034.5,123.6502 1036.0633,125.2135 1038,125.2135 C1039.9367,125.2135 1041.5,123.6502 1041.5,121.7135 C1041.5,119.7769 1039.9367,118.2135 1038,118.2135 " fill="#EFEFEF" style="stroke:;stroke-width:0.0;stroke-dasharray:;"/><text fill="#000000" font-family="sans-serif" font-size="14" lengthAdjust="spacing" textLength="145" x="1048.8333" y="127.9707">ModifiedDate: datetime</text><line style="stroke:#181818;stroke-width:0.5;" x1="1028.5" x2="1232.8333" y1="135.0469" y2="135.0469"/></g><!--MD5=[b17bdffdd3f1685933c4a79793dc0207]
class Person.Person--><g id="elem_Person.Person"><rect codeLine="87" fill="#F1F1F1" height="276.9219" id="Person.Person" rx="2.5" ry="2.5" style="stroke:#181818;stroke-width:0.5;" width="206.3333" x="852.5" y="203"/><ellipse cx="904.4167" cy="219" fill="#FFFFFF" rx="11" ry="11" style="stroke:#A80036;stroke-width:1.0;"/><path d="M905.3385,216.3906 L905.3385,223.0469 L906.4948,223.0469 Q907.1042,223.0469 907.362,223.2813 Q907.6198,223.5156 907.6198,223.9063 Q907.6198,224.2813 907.362,224.5156 Q907.1042,224.75 906.4948,224.75 L902.5104,224.75 Q901.8854,224.75 901.6276,224.5156 Q901.3698,224.2813 901.3698,223.8906 Q901.3698,223.5156 901.6276,223.2813 Q901.8854,223.0469 902.5104,223.0469 L903.6354,223.0469 L903.6354,216.3906 L901.7917,216.3906 L901.7917,218 Q901.7917,218.6094 901.5573,218.875 Q901.3229,219.1406 900.9479,219.1406 Q900.5729,219.1406 900.3385,218.875 Q900.1042,218.6094 900.1042,218 L900.1042,214.6875 L908.9167,214.6875 L908.9167,218 Q908.9167,218.6094 908.6745,218.875 Q908.4323,219.1406 908.0573,219.1406 Q907.6823,219.1406 907.4479,218.875 Q907.2135,218.6094 907.2135,218 L907.2135,216.3906 L905.3385,216.3906 Z " fill="#000000"/><text fill="#000000" font-family="sans-serif" font-size="14" lengthAdjust="spacing" textLength="94" x="924.9167" y="224.7285">Person.Person</text><line style="stroke:#181818;stroke-width:0.5;" x1="853.5" x2="1057.8333" y1="235" y2="235"/><path d="M865.9167,243.776 C864.3067,243.776 863,245.0827 863,246.6927 C863,246.8794 863,247.066 863.035,247.241 L859.5,250.776 L859.5,253.1094 L863,253.1094 L863,250.776 L865.3333,250.776 L865.3333,249.6094 L865.3683,249.5744 C865.5433,249.6094 865.73,249.6094 865.9167,249.6094 C867.5267,249.6094 868.8333,248.3027 868.8333,246.6927 C868.8333,245.0827 867.5267,243.776 865.9167,243.776 M866.5,244.9427 C867.1417,244.9427 867.6667,245.4677 867.6667,246.1094 C867.6667,246.751 867.1417,247.276 866.5,247.276 C865.8583,247.276 865.3333,246.751 865.3333,246.1094 C865.3333,245.4677 865.8583,244.9427 866.5,244.9427 " fill="#B8861B" style="stroke:;stroke-width:0.0;stroke-dasharray:;"/><text fill="#000000" font-family="sans-serif" font-size="14" font-weight="bold" lengthAdjust="spacing" textLength="118" x="873.8333" y="253.5332">BusinessEntityID</text><text fill="#000000" font-family="sans-serif" font-size="14" lengthAdjust="spacing" textLength="61" x="991.8333" y="253.5332">: int «PK»</text><path d="M863,261.3854 C861.0633,261.3854 859.5,262.9488 859.5,264.8854 C859.5,266.8221 861.0633,268.3854 863,268.3854 C864.9367,268.3854 866.5,266.8221 866.5,264.8854 C866.5,262.9488 864.9367,261.3854 863,261.3854 " fill="#EFEFEF" style="stroke:;stroke-width:0.0;stroke-dasharray:;"/><text fill="#000000" font-family="sans-serif" font-size="14" lengthAdjust="spacing" textLength="121" x="873.8333" y="271.1426">PersonType: nchar</text><path d="M863,278.9948 C861.0633,278.9948 859.5,280.5581 859.5,282.4948 C859.5,284.4315 861.0633,285.9948 863,285.9948 C864.9367,285.9948 866.5,284.4315 866.5,282.4948 C866.5,280.5581 864.9367,278.9948 863,278.9948 " fill="#EFEFEF" style="stroke:;stroke-width:0.0;stroke-dasharray:;"/><text fill="#000000" font-family="sans-serif" font-size="14" lengthAdjust="spacing" textLength="90" x="873.8333" y="288.752">NameStyle: bit</text><path d="M863,296.6042 C861.0633,296.6042 859.5,298.1675 859.5,300.1042 C859.5,302.0408 861.0633,303.6042 863,303.6042 C864.9367,303.6042 866.5,302.0408 866.5,300.1042 C866.5,298.1675 864.9367,296.6042 863,296.6042 " fill="#EFEFEF" style="stroke:;stroke-width:0.0;stroke-dasharray:;"/><text fill="#000000" font-family="sans-serif" font-size="14" lengthAdjust="spacing" textLength="91" x="873.8333" y="306.3613">Title: nvarchar</text><path d="M863,314.2135 C861.0633,314.2135 859.5,315.7769 859.5,317.7135 C859.5,319.6502 861.0633,321.2135 863,321.2135 C864.9367,321.2135 866.5,319.6502 866.5,317.7135 C866.5,315.7769 864.9367,314.2135 863,314.2135 " fill="#EFEFEF" style="stroke:;stroke-width:0.0;stroke-dasharray:;"/><text fill="#000000" font-family="sans-serif" font-size="14" lengthAdjust="spacing" textLength="128" x="873.8333" y="323.9707">FirstName: nvarchar</text><path d="M863,331.8229 C861.0633,331.8229 859.5,333.3862 859.5,335.3229 C859.5,337.2596 861.0633,338.8229 863,338.8229 C864.9367,338.8229 866.5,337.2596 866.5,335.3229 C866.5,333.3862 864.9367,331.8229 863,331.8229 " fill="#EFEFEF" style="stroke:;stroke-width:0.0;stroke-dasharray:;"/><text fill="#000000" font-family="sans-serif" font-size="14" lengthAdjust="spacing" textLength="141" x="873.8333" y="341.5801">MiddleName: nvarchar</text><path d="M863,349.4323 C861.0633,349.4323 859.5,350.9956 859.5,352.9323 C859.5,354.869 861.0633,356.4323 863,356.4323 C864.9367,356.4323 866.5,354.869 866.5,352.9323 C866.5,350.9956 864.9367,349.4323 863,349.4323 " fill="#EFEFEF" style="stroke:;stroke-width:0.0;stroke-dasharray:;"/><text fill="#000000" font-family="sans-serif" font-size="14" lengthAdjust="spacing" textLength="127" x="873.8333" y="359.1895">LastName: nvarchar</text><path d="M863,367.0417 C861.0633,367.0417 859.5,368.605 859.5,370.5417 C859.5,372.4783 861.0633,374.0417 863,374.0417 C864.9367,374.0417 866.5,372.4783 866.5,370.5417 C866.5,368.605 864.9367,367.0417 863,367.0417 " fill="#EFEFEF" style="stroke:;stroke-width:0.0;stroke-dasharray:;"/><text fill="#000000" font-family="sans-serif" font-size="14" lengthAdjust="spacing" textLength="98" x="873.8333" y="376.7988">Suffix: nvarchar</text><path d="M863,384.651 C861.0633,384.651 859.5,386.2144 859.5,388.151 C859.5,390.0877 861.0633,391.651 863,391.651 C864.9367,391.651 866.5,390.0877 866.5,388.151 C866.5,386.2144 864.9367,384.651 863,384.651 " fill="#EFEFEF" style="stroke:;stroke-width:0.0;stroke-dasharray:;"/><text fill="#000000" font-family="sans-serif" font-size="14" lengthAdjust="spacing" textLength="121" x="873.8333" y="394.4082">EmailPromotion: int</text><path d="M863,402.2604 C861.0633,402.2604 859.5,403.8237 859.5,405.7604 C859.5,407.6971 861.0633,409.2604 863,409.2604 C864.9367,409.2604 866.5,407.6971 866.5,405.7604 C866.5,403.8237 864.9367,402.2604 863,402.2604 " fill="#EFEFEF" style="stroke:;stroke-width:0.0;stroke-dasharray:;"/><text fill="#000000" font-family="sans-serif" font-size="14" lengthAdjust="spacing" textLength="162" x="873.8333" y="412.0176">AdditionalContactInfo: xml</text><path d="M863,419.8698 C861.0633,419.8698 859.5,421.4331 859.5,423.3698 C859.5,425.3065 861.0633,426.8698 863,426.8698 C864.9367,426.8698 866.5,425.3065 866.5,423.3698 C866.5,421.4331 864.9367,419.8698 863,419.8698 " fill="#EFEFEF" style="stroke:;stroke-width:0.0;stroke-dasharray:;"/><text fill="#000000" font-family="sans-serif" font-size="14" lengthAdjust="spacing" textLength="119" x="873.8333" y="429.627">Demographics: xml</text><path d="M863,437.4792 C861.0633,437.4792 859.5,439.0425 859.5,440.9792 C859.5,442.9158 861.0633,444.4792 863,444.4792 C864.9367,444.4792 866.5,442.9158 866.5,440.9792 C866.5,439.0425 864.9367,437.4792 863,437.4792 " fill="#EFEFEF" style="stroke:;stroke-width:0.0;stroke-dasharray:;"/><text fill="#000000" font-family="sans-serif" font-size="14" lengthAdjust="spacing" textLength="154" x="873.8333" y="447.2363">rowguid: uniqueidentifier</text><path d="M863,455.0885 C861.0633,455.0885 859.5,456.6519 859.5,458.5885 C859.5,460.5252 861.0633,462.0885 863,462.0885 C864.9367,462.0885 866.5,460.5252 866.5,458.5885 C866.5,456.6519 864.9367,455.0885 863,455.0885 " fill="#EFEFEF" style="stroke:;stroke-width:0.0;stroke-dasharray:;"/><text fill="#000000" font-family="sans-serif" font-size="14" lengthAdjust="spacing" textLength="145" x="873.8333" y="464.8457">ModifiedDate: datetime</text><line style="stroke:#181818;stroke-width:0.5;" x1="853.5" x2="1057.8333" y1="471.9219" y2="471.9219"/></g><!--MD5=[b95f19ff6f450f32c11629a7ec1ad1b7]
class Person.PersonPhone--><g id="elem_Person.PersonPhone"><rect codeLine="103" fill="#F1F1F1" height="118.4375" id="Person.PersonPhone" rx="2.5" ry="2.5" style="stroke:#181818;stroke-width:0.5;" width="235.3333" x="1269" y="16"/><ellipse cx="1314.9167" cy="32" fill="#FFFFFF" rx="11" ry="11" style="stroke:#A80036;stroke-width:1.0;"/><path d="M1315.8385,29.3906 L1315.8385,36.0469 L1316.9948,36.0469 Q1317.6042,36.0469 1317.862,36.2813 Q1318.1198,36.5156 1318.1198,36.9063 Q1318.1198,37.2813 1317.862,37.5156 Q1317.6042,37.75 1316.9948,37.75 L1313.0104,37.75 Q1312.3854,37.75 1312.1276,37.5156 Q1311.8698,37.2813 1311.8698,36.8906 Q1311.8698,36.5156 1312.1276,36.2813 Q1312.3854,36.0469 1313.0104,36.0469 L1314.1354,36.0469 L1314.1354,29.3906 L1312.2917,29.3906 L1312.2917,31 Q1312.2917,31.6094 1312.0573,31.875 Q1311.8229,32.1406 1311.4479,32.1406 Q1311.0729,32.1406 1310.8385,31.875 Q1310.6042,31.6094 1310.6042,31 L1310.6042,27.6875 L1319.4167,27.6875 L1319.4167,31 Q1319.4167,31.6094 1319.1745,31.875 Q1318.9323,32.1406 1318.5573,32.1406 Q1318.1823,32.1406 1317.9479,31.875 Q1317.7135,31.6094 1317.7135,31 L1317.7135,29.3906 L1315.8385,29.3906 Z " fill="#000000"/><text fill="#000000" font-family="sans-serif" font-size="14" lengthAdjust="spacing" textLength="135" x="1335.4167" y="37.7285">Person.PersonPhone</text><line style="stroke:#181818;stroke-width:0.5;" x1="1270" x2="1503.3333" y1="48" y2="48"/><path d="M1282.4167,56.776 C1280.8067,56.776 1279.5,58.0827 1279.5,59.6927 C1279.5,59.8794 1279.5,60.066 1279.535,60.241 L1276,63.776 L1276,66.1094 L1279.5,66.1094 L1279.5,63.776 L1281.8333,63.776 L1281.8333,62.6094 L1281.8683,62.5744 C1282.0433,62.6094 1282.23,62.6094 1282.4167,62.6094 C1284.0267,62.6094 1285.3333,61.3027 1285.3333,59.6927 C1285.3333,58.0827 1284.0267,56.776 1282.4167,56.776 M1283,57.9427 C1283.6417,57.9427 1284.1667,58.4677 1284.1667,59.1094 C1284.1667,59.751 1283.6417,60.276 1283,60.276 C1282.3583,60.276 1281.8333,59.751 1281.8333,59.1094 C1281.8333,58.4677 1282.3583,57.9427 1283,57.9427 " fill="#B8861B" style="stroke:;stroke-width:0.0;stroke-dasharray:;"/><text fill="#000000" font-family="sans-serif" font-size="14" font-weight="bold" lengthAdjust="spacing" textLength="118" x="1290.3333" y="66.5332">BusinessEntityID</text><text fill="#000000" font-family="sans-serif" font-size="14" lengthAdjust="spacing" textLength="61" x="1408.3333" y="66.5332">: int «PK»</text><path d="M1282.4167,74.3854 C1280.8067,74.3854 1279.5,75.6921 1279.5,77.3021 C1279.5,77.4888 1279.5,77.6754 1279.535,77.8504 L1276,81.3854 L1276,83.7187 L1279.5,83.7187 L1279.5,81.3854 L1281.8333,81.3854 L1281.8333,80.2187 L1281.8683,80.1837 C1282.0433,80.2187 1282.23,80.2187 1282.4167,80.2187 C1284.0267,80.2187 1285.3333,78.9121 1285.3333,77.3021 C1285.3333,75.6921 1284.0267,74.3854 1282.4167,74.3854 M1283,75.5521 C1283.6417,75.5521 1284.1667,76.0771 1284.1667,76.7187 C1284.1667,77.3604 1283.6417,77.8854 1283,77.8854 C1282.3583,77.8854 1281.8333,77.3604 1281.8333,76.7187 C1281.8333,76.0771 1282.3583,75.5521 1283,75.5521 " fill="#B8861B" style="stroke:;stroke-width:0.0;stroke-dasharray:;"/><text fill="#000000" font-family="sans-serif" font-size="14" font-weight="bold" lengthAdjust="spacing" textLength="100" x="1290.3333" y="84.1426">PhoneNumber</text><text fill="#000000" font-family="sans-serif" font-size="14" lengthAdjust="spacing" textLength="102" x="1390.3333" y="84.1426">: nvarchar «PK»</text><path d="M1282.4167,91.9948 C1280.8067,91.9948 1279.5,93.3015 1279.5,94.9115 C1279.5,95.0981 1279.5,95.2848 1279.535,95.4598 L1276,98.9948 L1276,101.3281 L1279.5,101.3281 L1279.5,98.9948 L1281.8333,98.9948 L1281.8333,97.8281 L1281.8683,97.7931 C1282.0433,97.8281 1282.23,97.8281 1282.4167,97.8281 C1284.0267,97.8281 1285.3333,96.5215 1285.3333,94.9115 C1285.3333,93.3015 1284.0267,91.9948 1282.4167,91.9948 M1283,93.1615 C1283.6417,93.1615 1284.1667,93.6865 1284.1667,94.3281 C1284.1667,94.9698 1283.6417,95.4948 1283,95.4948 C1282.3583,95.4948 1281.8333,94.9698 1281.8333,94.3281 C1281.8333,93.6865 1282.3583,93.1615 1283,93.1615 " fill="#B8861B" style="stroke:;stroke-width:0.0;stroke-dasharray:;"/><text fill="#000000" font-family="sans-serif" font-size="14" font-weight="bold" lengthAdjust="spacing" textLength="147" x="1290.3333" y="101.752">PhoneNumberTypeID</text><text fill="#000000" font-family="sans-serif" font-size="14" lengthAdjust="spacing" textLength="61" x="1437.3333" y="101.752">: int «PK»</text><path d="M1279.5,109.6042 C1277.5633,109.6042 1276,111.1675 1276,113.1042 C1276,115.0408 1277.5633,116.6042 1279.5,116.6042 C1281.4367,116.6042 1283,115.0408 1283,113.1042 C1283,111.1675 1281.4367,109.6042 1279.5,109.6042 " fill="#EFEFEF" style="stroke:;stroke-width:0.0;stroke-dasharray:;"/><text fill="#000000" font-family="sans-serif" font-size="14" lengthAdjust="spacing" textLength="145" x="1290.3333" y="119.3613">ModifiedDate: datetime</text><line style="stroke:#181818;stroke-width:0.5;" x1="1270" x2="1503.3333" y1="126.4375" y2="126.4375"/></g><!--MD5=[8b309800849bd1eb73532aaab4dbda0b]
class Person.PhoneNumberType--><g id="elem_Person.PhoneNumberType"><rect codeLine="110" fill="#F1F1F1" height="100.8281" id="Person.PhoneNumberType" rx="2.5" ry="2.5" style="stroke:#181818;stroke-width:0.5;" width="235.3333" x="1269" y="291"/><ellipse cx="1298.55" cy="307" fill="#FFFFFF" rx="11" ry="11" style="stroke:#A80036;stroke-width:1.0;"/><path d="M1299.4719,304.3906 L1299.4719,311.0469 L1300.6281,311.0469 Q1301.2375,311.0469 1301.4953,311.2813 Q1301.7531,311.5156 1301.7531,311.9063 Q1301.7531,312.2813 1301.4953,312.5156 Q1301.2375,312.75 1300.6281,312.75 L1296.6438,312.75 Q1296.0188,312.75 1295.7609,312.5156 Q1295.5031,312.2813 1295.5031,311.8906 Q1295.5031,311.5156 1295.7609,311.2813 Q1296.0188,311.0469 1296.6438,311.0469 L1297.7688,311.0469 L1297.7688,304.3906 L1295.925,304.3906 L1295.925,306 Q1295.925,306.6094 1295.6906,306.875 Q1295.4563,307.1406 1295.0813,307.1406 Q1294.7063,307.1406 1294.4719,306.875 Q1294.2375,306.6094 1294.2375,306 L1294.2375,302.6875 L1303.05,302.6875 L1303.05,306 Q1303.05,306.6094 1302.8078,306.875 Q1302.5656,307.1406 1302.1906,307.1406 Q1301.8156,307.1406 1301.5813,306.875 Q1301.3469,306.6094 1301.3469,306 L1301.3469,304.3906 L1299.4719,304.3906 Z " fill="#000000"/><text fill="#000000" font-family="sans-serif" font-size="14" lengthAdjust="spacing" textLength="171" x="1315.7833" y="312.7285">Person.PhoneNumberType</text><line style="stroke:#181818;stroke-width:0.5;" x1="1270" x2="1503.3333" y1="323" y2="323"/><path d="M1282.4167,331.776 C1280.8067,331.776 1279.5,333.0827 1279.5,334.6927 C1279.5,334.8794 1279.5,335.066 1279.535,335.241 L1276,338.776 L1276,341.1094 L1279.5,341.1094 L1279.5,338.776 L1281.8333,338.776 L1281.8333,337.6094 L1281.8683,337.5744 C1282.0433,337.6094 1282.23,337.6094 1282.4167,337.6094 C1284.0267,337.6094 1285.3333,336.3027 1285.3333,334.6927 C1285.3333,333.0827 1284.0267,331.776 1282.4167,331.776 M1283,332.9427 C1283.6417,332.9427 1284.1667,333.4677 1284.1667,334.1094 C1284.1667,334.751 1283.6417,335.276 1283,335.276 C1282.3583,335.276 1281.8333,334.751 1281.8333,334.1094 C1281.8333,333.4677 1282.3583,332.9427 1283,332.9427 " fill="#B8861B" style="stroke:;stroke-width:0.0;stroke-dasharray:;"/><text fill="#000000" font-family="sans-serif" font-size="14" font-weight="bold" lengthAdjust="spacing" textLength="147" x="1290.3333" y="341.5332">PhoneNumberTypeID</text><text fill="#000000" font-family="sans-serif" font-size="14" lengthAdjust="spacing" textLength="61" x="1437.3333" y="341.5332">: int «PK»</text><path d="M1279.5,349.3854 C1277.5633,349.3854 1276,350.9488 1276,352.8854 C1276,354.8221 1277.5633,356.3854 1279.5,356.3854 C1281.4367,356.3854 1283,354.8221 1283,352.8854 C1283,350.9488 1281.4367,349.3854 1279.5,349.3854 " fill="#EFEFEF" style="stroke:;stroke-width:0.0;stroke-dasharray:;"/><text fill="#000000" font-family="sans-serif" font-size="14" lengthAdjust="spacing" textLength="100" x="1290.3333" y="359.1426">Name: nvarchar</text><path d="M1279.5,366.9948 C1277.5633,366.9948 1276,368.5581 1276,370.4948 C1276,372.4315 1277.5633,373.9948 1279.5,373.9948 C1281.4367,373.9948 1283,372.4315 1283,370.4948 C1283,368.5581 1281.4367,366.9948 1279.5,366.9948 " fill="#EFEFEF" style="stroke:;stroke-width:0.0;stroke-dasharray:;"/><text fill="#000000" font-family="sans-serif" font-size="14" lengthAdjust="spacing" textLength="145" x="1290.3333" y="376.752">ModifiedDate: datetime</text><line style="stroke:#181818;stroke-width:0.5;" x1="1270" x2="1503.3333" y1="383.8281" y2="383.8281"/></g><!--MD5=[2d49ba14b0b932c3af4c7d838004c39b]
link Person.Address to Person.StateProvince--><g id="link_Person.Address_Person.StateProvince"><path codeLine="117" d="M142.5,754.45 C142.5,768.78 142.5,783.4 142.5,797.57 " fill="none" id="Person.Address-Person.StateProvince" style="stroke:#181818;stroke-width:1.0;"/><line style="stroke:#181818;stroke-width:1.0;" x1="146.5" x2="138.5" y1="801.86" y2="801.86"/><line style="stroke:#181818;stroke-width:1.0;" x1="146.5" x2="138.5" y1="798.86" y2="798.86"/><line style="stroke:#181818;stroke-width:1.0;" x1="142.5" x2="142.5" y1="797.86" y2="805.86"/><line style="stroke:#181818;stroke-width:1.0;" x1="142.5" x2="136.5" y1="754.08" y2="746.08"/><line style="stroke:#181818;stroke-width:1.0;" x1="142.5" x2="148.5" y1="754.08" y2="746.08"/><line style="stroke:#181818;stroke-width:1.0;" x1="142.5" x2="142.5" y1="754.08" y2="746.08"/><line style="stroke:#181818;stroke-width:1.0;" x1="138.5" x2="146.5" y1="756.08" y2="756.08"/></g><!--MD5=[85d67994a39d015060b84326d188de3c]
link Person.StateProvince to Person.CountryRegion--><g id="link_Person.StateProvince_Person.CountryRegion"><path codeLine="118" d="M142.5,1003.49 C142.5,1018.3 142.5,1033.09 142.5,1046.61 " fill="none" id="Person.StateProvince-Person.CountryRegion" style="stroke:#181818;stroke-width:1.0;"/><line style="stroke:#181818;stroke-width:1.0;" x1="146.5" x2="138.5" y1="1050.85" y2="1050.85"/><line style="stroke:#181818;stroke-width:1.0;" x1="146.5" x2="138.5" y1="1047.85" y2="1047.85"/><line style="stroke:#181818;stroke-width:1.0;" x1="142.5" x2="142.5" y1="1046.85" y2="1054.85"/><line style="stroke:#181818;stroke-width:1.0;" x1="142.5" x2="136.5" y1="1003.28" y2="995.28"/><line style="stroke:#181818;stroke-width:1.0;" x1="142.5" x2="148.5" y1="1003.28" y2="995.28"/><line style="stroke:#181818;stroke-width:1.0;" x1="142.5" x2="142.5" y1="1003.28" y2="995.28"/><line style="stroke:#181818;stroke-width:1.0;" x1="138.5" x2="146.5" y1="1005.28" y2="1005.28"/></g><!--MD5=[336af10d3f57102975e87d1dd313a2b8]
link Person.BusinessEntityAddress to Person.Address--><g id="link_Person.BusinessEntityAddress_Person.Address"><path codeLine="119" d="M317.49,416.1 C290.16,451.38 256.89,494.33 226.72,533.28 " fill="none" id="Person.BusinessEntityAddress-Person.Address" style="stroke:#181818;stroke-width:1.0;"/><line style="stroke:#181818;stroke-width:1.0;" x1="227.1306" x2="220.7981" y1="539.2681" y2="534.3794"/><line style="stroke:#181818;stroke-width:1.0;" x1="228.9639" x2="222.6314" y1="536.8934" y2="532.0047"/><line style="stroke:#181818;stroke-width:1.0;" x1="226.4087" x2="221.52" y1="533.6575" y2="539.99"/><line style="stroke:#181818;stroke-width:1.0;" x1="317.5323" x2="317.6858" y1="416.0356" y2="406.0367"/><line style="stroke:#181818;stroke-width:1.0;" x1="317.5323" x2="327.1742" y1="416.0356" y2="413.3833"/><line style="stroke:#181818;stroke-width:1.0;" x1="317.5323" x2="322.43" y1="416.0356" y2="409.71"/><line style="stroke:#181818;stroke-width:1.0;" x1="313.1451" x2="319.4707" y1="415.1681" y2="420.0658"/></g><!--MD5=[0dd680ac9859189d972529cc5da61145]
link Person.BusinessEntityAddress to Person.AddressType--><g id="link_Person.BusinessEntityAddress_Person.AddressType"><path codeLine="120" d="M374.5,417.82 C374.5,466.29 374.5,528.72 374.5,575.38 " fill="none" id="Person.BusinessEntityAddress-Person.AddressType" style="stroke:#181818;stroke-width:1.0;"/><line style="stroke:#181818;stroke-width:1.0;" x1="378.5071" x2="370.5071" y1="579.6171" y2="579.6029"/><line style="stroke:#181818;stroke-width:1.0;" x1="378.5125" x2="370.5125" y1="576.6172" y2="576.6029"/><line style="stroke:#181818;stroke-width:1.0;" x1="374.5143" x2="374.5" y1="575.61" y2="583.61"/><line style="stroke:#181818;stroke-width:1.0;" x1="374.5" x2="368.5" y1="417.71" y2="409.71"/><line style="stroke:#181818;stroke-width:1.0;" x1="374.5" x2="380.5" y1="417.71" y2="409.71"/><line style="stroke:#181818;stroke-width:1.0;" x1="374.5" x2="374.5" y1="417.71" y2="409.71"/><line style="stroke:#181818;stroke-width:1.0;" x1="370.5" x2="378.5" y1="419.71" y2="419.71"/></g><!--MD5=[737ed46eee9a8e037b3e20e9ff01aa7d]
link Person.BusinessEntityAddress to Person.BusinessEntity--><g id="link_Person.BusinessEntityAddress_Person.BusinessEntity"><path codeLine="121" d="M432.41,416.3 C473.53,468.72 527.91,538.02 565.51,585.93 " fill="none" id="Person.BusinessEntityAddress-Person.BusinessEntity" style="stroke:#181818;stroke-width:1.0;"/><line style="stroke:#181818;stroke-width:1.0;" x1="571.1417" x2="564.8532" y1="586.6332" y2="591.5783"/><line style="stroke:#181818;stroke-width:1.0;" x1="569.2873" x2="562.9988" y1="584.275" y2="589.2201"/><line style="stroke:#181818;stroke-width:1.0;" x1="565.5249" x2="570.47" y1="585.9614" y2="592.25"/><line style="stroke:#181818;stroke-width:1.0;" x1="432.1782" x2="422.5195" y1="416.004" y2="413.4136"/><line style="stroke:#181818;stroke-width:1.0;" x1="432.1782" x2="431.9605" y1="416.004" y2="406.0064"/><line style="stroke:#181818;stroke-width:1.0;" x1="432.1782" x2="427.24" y1="416.004" y2="409.71"/><line style="stroke:#181818;stroke-width:1.0;" x1="430.2657" x2="436.5597" y1="420.0466" y2="415.1084"/></g><!--MD5=[634fd12baa3b82e16bc35c03f615aaa7]
link Person.BusinessEntityContact to Person.Person--><g id="link_Person.BusinessEntityContact_Person.Person"><path codeLine="122" d="M758.65,146.05 C784.6,163.41 811.26,182.85 834.5,203 C838.54,206.5 842.56,210.13 846.56,213.86 " fill="none" id="Person.BusinessEntityContact-Person.Person" style="stroke:#181818;stroke-width:1.0;"/><line style="stroke:#181818;stroke-width:1.0;" x1="852.2602" x2="846.7551" y1="213.7451" y2="219.5498"/><line style="stroke:#181818;stroke-width:1.0;" x1="850.0835" x2="844.5784" y1="211.6807" y2="217.4853"/><line style="stroke:#181818;stroke-width:1.0;" x1="846.6054" x2="852.41" y1="213.8949" y2="219.4"/><line style="stroke:#181818;stroke-width:1.0;" x1="758.3774" x2="748.3942" y1="145.8711" y2="146.4505"/><line style="stroke:#181818;stroke-width:1.0;" x1="758.3774" x2="755.0258" y1="145.8711" y2="136.4495"/><line style="stroke:#181818;stroke-width:1.0;" x1="758.3774" x2="751.71" y1="145.8711" y2="141.45"/><line style="stroke:#181818;stroke-width:1.0;" x1="757.8337" x2="762.2548" y1="150.31" y2="143.6427"/></g><!--MD5=[272628b32859e6251da8a1f62c1872fe]
link Person.BusinessEntityContact to Person.ContactType--><g id="link_Person.BusinessEntityContact_Person.ContactType"><path codeLine="123" d="M663.67,150.74 C676.62,192.52 692.53,243.82 704.53,282.54 " fill="none" id="Person.BusinessEntityContact-Person.ContactType" style="stroke:#181818;stroke-width:1.0;"/><line style="stroke:#181818;stroke-width:1.0;" x1="709.6735" x2="702.0288" y1="285.6088" y2="287.9665"/><line style="stroke:#181818;stroke-width:1.0;" x1="708.7893" x2="701.1447" y1="282.742" y2="285.0998"/><line style="stroke:#181818;stroke-width:1.0;" x1="704.6723" x2="707.03" y1="282.9653" y2="290.61"/><line style="stroke:#181818;stroke-width:1.0;" x1="663.6707" x2="655.5695" y1="150.7307" y2="144.8681"/><line style="stroke:#181818;stroke-width:1.0;" x1="663.6707" x2="667.0305" y1="150.7307" y2="141.3119"/><line style="stroke:#181818;stroke-width:1.0;" x1="663.6707" x2="661.3" y1="150.7307" y2="143.09"/><line style="stroke:#181818;stroke-width:1.0;" x1="660.4431" x2="668.0838" y1="153.8262" y2="151.4554"/></g><!--MD5=[f3169ad300ca158e7b85450c7a573938]
link Person.BusinessEntityContact to Person.BusinessEntity--><g id="link_Person.BusinessEntityContact_Person.BusinessEntity"><path codeLine="124" d="M619.72,151.25 C615.9,168.14 612.49,186.08 610.5,203 C594.51,338.89 600.46,500.07 605.43,584.25 " fill="none" id="Person.BusinessEntityContact-Person.BusinessEntity" style="stroke:#181818;stroke-width:1.0;"/><line style="stroke:#181818;stroke-width:1.0;" x1="609.6798" x2="601.6945" y1="588.1645" y2="588.6502"/><line style="stroke:#181818;stroke-width:1.0;" x1="609.4976" x2="601.5124" y1="585.1701" y2="585.6558"/><line style="stroke:#181818;stroke-width:1.0;" x1="605.4443" x2="605.93" y1="584.4148" y2="592.4"/><line style="stroke:#181818;stroke-width:1.0;" x1="619.8176" x2="615.786" y1="150.832" y2="141.6807"/><line style="stroke:#181818;stroke-width:1.0;" x1="619.8176" x2="627.474" y1="150.832" y2="144.3993"/><line style="stroke:#181818;stroke-width:1.0;" x1="619.8176" x2="621.63" y1="150.832" y2="143.04"/><line style="stroke:#181818;stroke-width:1.0;" x1="615.4685" x2="623.2605" y1="151.8738" y2="153.6862"/></g><!--MD5=[d53a58f32e1cb42dcf355f4d1f764c34]
link Person.EmailAddress to Person.Person--><g id="link_Person.EmailAddress_Person.Person"><path codeLine="125" d="M908.2,150.96 C911.67,164.83 915.39,179.74 919.17,194.89 " fill="none" id="Person.EmailAddress-Person.Person" style="stroke:#181818;stroke-width:1.0;"/><line style="stroke:#181818;stroke-width:1.0;" x1="924.0604" x2="916.2993" y1="197.9793" y2="199.9196"/><line style="stroke:#181818;stroke-width:1.0;" x1="923.3328" x2="915.5717" y1="195.0689" y2="197.0091"/><line style="stroke:#181818;stroke-width:1.0;" x1="919.2097" x2="921.15" y1="195.0689" y2="202.83"/><line style="stroke:#181818;stroke-width:1.0;" x1="908.1836" x2="900.4198" y1="150.8503" y2="144.5477"/><line style="stroke:#181818;stroke-width:1.0;" x1="908.1836" x2="912.0602" y1="150.8503" y2="141.6323"/><line style="stroke:#181818;stroke-width:1.0;" x1="908.1836" x2="906.24" y1="150.8503" y2="143.09"/><line style="stroke:#181818;stroke-width:1.0;" x1="904.7894" x2="912.5497" y1="153.7622" y2="151.8185"/></g><!--MD5=[ff3ba2856a8e5ca417e2631d8f02b127]
link Person.Password to Person.Person--><g id="link_Person.Password_Person.Person"><path codeLine="126" d="M1081.49,150.07 C1071.92,164.54 1061.58,180.16 1051.09,196.02 " fill="none" id="Person.Password-Person.Person" style="stroke:#181818;stroke-width:1.0;"/><line style="stroke:#181818;stroke-width:1.0;" x1="1052.1231" x2="1045.4514" y1="201.7014" y2="197.2869"/><line style="stroke:#181818;stroke-width:1.0;" x1="1053.7786" x2="1047.1068" y1="199.1995" y2="194.785"/><line style="stroke:#181818;stroke-width:1.0;" x1="1050.9945" x2="1046.58" y1="196.1583" y2="202.83"/><line style="stroke:#181818;stroke-width:1.0;" x1="1081.6955" x2="1081.1062" y1="149.7617" y2="139.7791"/><line style="stroke:#181818;stroke-width:1.0;" x1="1081.6955" x2="1091.1138" y1="149.7617" y2="146.4009"/><line style="stroke:#181818;stroke-width:1.0;" x1="1081.6955" x2="1086.11" y1="149.7617" y2="143.09"/><line style="stroke:#181818;stroke-width:1.0;" x1="1077.256" x2="1083.9278" y1="149.2224" y2="153.6369"/></g><!--MD5=[ece102c13807b458c936ac918be17b57]
link Person.Person to Person.BusinessEntity--><g id="link_Person.Person_Person.BusinessEntity"><path codeLine="127" d="M846.59,468.68 C842.57,472.55 838.54,476.34 834.5,480 C790.92,519.52 737.66,558.23 693.91,587.9 " fill="none" id="Person.Person-Person.BusinessEntity" style="stroke:#181818;stroke-width:1.0;"/><line style="stroke:#181818;stroke-width:1.0;" x1="692.803" x2="688.3291" y1="593.4691" y2="586.837"/><line style="stroke:#181818;stroke-width:1.0;" x1="695.29" x2="690.8162" y1="591.7915" y2="585.1594"/><line style="stroke:#181818;stroke-width:1.0;" x1="693.8821" x2="687.25" y1="587.9162" y2="592.39"/><line style="stroke:#181818;stroke-width:1.0;" x1="846.7493" x2="848.2758" y1="468.5223" y2="458.6395"/><line style="stroke:#181818;stroke-width:1.0;" x1="846.7493" x2="856.6642" y1="468.5223" y2="467.2205"/><line style="stroke:#181818;stroke-width:1.0;" x1="846.7493" x2="852.47" y1="468.5223" y2="462.93"/><line style="stroke:#181818;stroke-width:1.0;" x1="842.523" x2="848.1153" y1="467.06" y2="472.7807"/></g><!--MD5=[bc9eb30c35099a81c6d3f9bc403ae850]
link Person.PersonPhone to Person.Person--><g id="link_Person.PersonPhone_Person.Person"><path codeLine="128" d="M1284.96,138.31 C1218.99,178.8 1133.01,231.57 1065.43,273.04 " fill="none" id="Person.PersonPhone-Person.Person" style="stroke:#181818;stroke-width:1.0;"/><line style="stroke:#181818;stroke-width:1.0;" x1="1064.0319" x2="1059.8448" y1="278.5848" y2="271.7681"/><line style="stroke:#181818;stroke-width:1.0;" x1="1066.5882" x2="1062.401" y1="277.0146" y2="270.1979"/><line style="stroke:#181818;stroke-width:1.0;" x1="1065.3467" x2="1058.53" y1="273.0828" y2="277.27"/><line style="stroke:#181818;stroke-width:1.0;" x1="1285.0994" x2="1288.7844" y1="138.2308" y2="128.9345"/><line style="stroke:#181818;stroke-width:1.0;" x1="1285.0994" x2="1295.0556" y1="138.2308" y2="139.1655"/><line style="stroke:#181818;stroke-width:1.0;" x1="1285.0994" x2="1291.92" y1="138.2308" y2="134.05"/><line style="stroke:#181818;stroke-width:1.0;" x1="1281.3038" x2="1285.4847" y1="135.8657" y2="142.6863"/></g><!--MD5=[9faf8e4a758207b20b970a9da2c90986]
link Person.PersonPhone to Person.PhoneNumberType--><g id="link_Person.PersonPhone_Person.PhoneNumberType"><path codeLine="129" d="M1386.5,142.17 C1386.5,185.33 1386.5,241.11 1386.5,282.52 " fill="none" id="Person.PersonPhone-Person.PhoneNumberType" style="stroke:#181818;stroke-width:1.0;"/><line style="stroke:#181818;stroke-width:1.0;" x1="1390.5" x2="1382.5" y1="286.6" y2="286.6"/><line style="stroke:#181818;stroke-width:1.0;" x1="1390.5" x2="1382.5" y1="283.6" y2="283.6"/><line style="stroke:#181818;stroke-width:1.0;" x1="1386.5" x2="1386.5" y1="282.6" y2="290.6"/><line style="stroke:#181818;stroke-width:1.0;" x1="1386.5" x2="1380.5" y1="142.05" y2="134.05"/><line style="stroke:#181818;stroke-width:1.0;" x1="1386.5" x2="1392.5" y1="142.05" y2="134.05"/><line style="stroke:#181818;stroke-width:1.0;" x1="1386.5" x2="1386.5" y1="142.05" y2="134.05"/><line style="stroke:#181818;stroke-width:1.0;" x1="1382.5" x2="1390.5" y1="144.05" y2="144.05"/></g><!--MD5=[214efdd8c502977090c26db4ed548cb6]
@startuml
!define primary_key(x) <b><color:#b8861b><&key></color> x</b>
!define foreign_key(x) <color:#aaaaaa><&key></color> x
!define column(x) <color:#efefef><&media-record></color> x
!define table(x) entity x << (T, white) >>

table( Person.Address )
{
   primary_key( AddressID ): int <<PK>>
   column( AddressLine1 ): nvarchar
   column( AddressLine2 ): nvarchar
   column( City ): nvarchar
   foreign_key( StateProvinceID ): int <<FK>>
   column( PostalCode ): nvarchar
   column( SpatialLocation ): geography
   column( rowguid ): uniqueidentifier
   column( ModifiedDate ): datetime
}
table( Person.AddressType )
{
   primary_key( AddressTypeID ): int <<PK>>
   column( Name ): nvarchar
   column( rowguid ): uniqueidentifier
   column( ModifiedDate ): datetime
}
table( Person.StateProvince )
{
   primary_key( StateProvinceID ): int <<PK>>
   column( StateProvinceCode ): nchar
   foreign_key( CountryRegionCode ): nvarchar <<FK>>
   column( IsOnlyStateProvinceFlag ): bit
   column( Name ): nvarchar
   foreign_key( TerritoryID ): int <<FK>>
   column( rowguid ): uniqueidentifier
   column( ModifiedDate ): datetime
}
table( Person.BusinessEntity )
{
   primary_key( BusinessEntityID ): int <<PK>>
   column( rowguid ): uniqueidentifier
   column( ModifiedDate ): datetime
}
table( Person.BusinessEntityAddress )
{
   primary_key( BusinessEntityID ): int <<PK>>
   primary_key( AddressID ): int <<PK>>
   primary_key( AddressTypeID ): int <<PK>>
   column( rowguid ): uniqueidentifier
   column( ModifiedDate ): datetime
}
table( Person.BusinessEntityContact )
{
   primary_key( BusinessEntityID ): int <<PK>>
   primary_key( PersonID ): int <<PK>>
   primary_key( ContactTypeID ): int <<PK>>
   column( rowguid ): uniqueidentifier
   column( ModifiedDate ): datetime
}
table( Person.ContactType )
{
   primary_key( ContactTypeID ): int <<PK>>
   column( Name ): nvarchar
   column( ModifiedDate ): datetime
}
table( Person.CountryRegion )
{
   primary_key( CountryRegionCode ): nvarchar <<PK>>
   column( Name ): nvarchar
   column( ModifiedDate ): datetime
}
table( Person.EmailAddress )
{
   primary_key( BusinessEntityID ): int <<PK>>
   primary_key( EmailAddressID ): int <<PK>>
   column( EmailAddress ): nvarchar
   column( rowguid ): uniqueidentifier
   column( ModifiedDate ): datetime
}
table( Person.Password )
{
   primary_key( BusinessEntityID ): int <<PK>>
   column( PasswordHash ): varchar
   column( PasswordSalt ): varchar
   column( rowguid ): uniqueidentifier
   column( ModifiedDate ): datetime
}
table( Person.Person )
{
   primary_key( BusinessEntityID ): int <<PK>>
   column( PersonType ): nchar
   column( NameStyle ): bit
   column( Title ): nvarchar
   column( FirstName ): nvarchar
   column( MiddleName ): nvarchar
   column( LastName ): nvarchar
   column( Suffix ): nvarchar
   column( EmailPromotion ): int
   column( AdditionalContactInfo ): xml
   column( Demographics ): xml
   column( rowguid ): uniqueidentifier
   column( ModifiedDate ): datetime
}
table( Person.PersonPhone )
{
   primary_key( BusinessEntityID ): int <<PK>>
   primary_key( PhoneNumber ): nvarchar <<PK>>
   primary_key( PhoneNumberTypeID ): int <<PK>>
   column( ModifiedDate ): datetime
}
table( Person.PhoneNumberType )
{
   primary_key( PhoneNumberTypeID ): int <<PK>>
   column( Name ): nvarchar
   column( ModifiedDate ): datetime
}
' *** Define Table Relationships
Person.Address }|- -|| Person.StateProvince
Person.StateProvince }|- -|| Person.CountryRegion
Person.BusinessEntityAddress }|- -|| Person.Address
Person.BusinessEntityAddress }|- -|| Person.AddressType
Person.BusinessEntityAddress }|- -|| Person.BusinessEntity
Person.BusinessEntityContact }|- -|| Person.Person
Person.BusinessEntityContact }|- -|| Person.ContactType
Person.BusinessEntityContact }|- -|| Person.BusinessEntity
Person.EmailAddress }|- -|| Person.Person
Person.Password }|- -|| Person.Person
Person.Person }|- -|| Person.BusinessEntity
Person.PersonPhone }|- -|| Person.Person
Person.PersonPhone }|- -|| Person.PhoneNumberType
@enduml

@startuml

entity Person.Address << (T, white) >>
{
   <b><color:#b8861b><&key></color> AddressID</b>: int <<PK>>
   <color:#efefef><&media-record></color> AddressLine1: nvarchar
   <color:#efefef><&media-record></color> AddressLine2: nvarchar
   <color:#efefef><&media-record></color> City: nvarchar
   <color:#aaaaaa><&key></color> StateProvinceID: int <<FK>>
   <color:#efefef><&media-record></color> PostalCode: nvarchar
   <color:#efefef><&media-record></color> SpatialLocation: geography
   <color:#efefef><&media-record></color> rowguid: uniqueidentifier
   <color:#efefef><&media-record></color> ModifiedDate: datetime
}
entity Person.AddressType << (T, white) >>
{
   <b><color:#b8861b><&key></color> AddressTypeID</b>: int <<PK>>
   <color:#efefef><&media-record></color> Name: nvarchar
   <color:#efefef><&media-record></color> rowguid: uniqueidentifier
   <color:#efefef><&media-record></color> ModifiedDate: datetime
}
entity Person.StateProvince << (T, white) >>
{
   <b><color:#b8861b><&key></color> StateProvinceID</b>: int <<PK>>
   <color:#efefef><&media-record></color> StateProvinceCode: nchar
   <color:#aaaaaa><&key></color> CountryRegionCode: nvarchar <<FK>>
   <color:#efefef><&media-record></color> IsOnlyStateProvinceFlag: bit
   <color:#efefef><&media-record></color> Name: nvarchar
   <color:#aaaaaa><&key></color> TerritoryID: int <<FK>>
   <color:#efefef><&media-record></color> rowguid: uniqueidentifier
   <color:#efefef><&media-record></color> ModifiedDate: datetime
}
entity Person.BusinessEntity << (T, white) >>
{
   <b><color:#b8861b><&key></color> BusinessEntityID</b>: int <<PK>>
   <color:#efefef><&media-record></color> rowguid: uniqueidentifier
   <color:#efefef><&media-record></color> ModifiedDate: datetime
}
entity Person.BusinessEntityAddress << (T, white) >>
{
   <b><color:#b8861b><&key></color> BusinessEntityID</b>: int <<PK>>
   <b><color:#b8861b><&key></color> AddressID</b>: int <<PK>>
   <b><color:#b8861b><&key></color> AddressTypeID</b>: int <<PK>>
   <color:#efefef><&media-record></color> rowguid: uniqueidentifier
   <color:#efefef><&media-record></color> ModifiedDate: datetime
}
entity Person.BusinessEntityContact << (T, white) >>
{
   <b><color:#b8861b><&key></color> BusinessEntityID</b>: int <<PK>>
   <b><color:#b8861b><&key></color> PersonID</b>: int <<PK>>
   <b><color:#b8861b><&key></color> ContactTypeID</b>: int <<PK>>
   <color:#efefef><&media-record></color> rowguid: uniqueidentifier
   <color:#efefef><&media-record></color> ModifiedDate: datetime
}
entity Person.ContactType << (T, white) >>
{
   <b><color:#b8861b><&key></color> ContactTypeID</b>: int <<PK>>
   <color:#efefef><&media-record></color> Name: nvarchar
   <color:#efefef><&media-record></color> ModifiedDate: datetime
}
entity Person.CountryRegion << (T, white) >>
{
   <b><color:#b8861b><&key></color> CountryRegionCode</b>: nvarchar <<PK>>
   <color:#efefef><&media-record></color> Name: nvarchar
   <color:#efefef><&media-record></color> ModifiedDate: datetime
}
entity Person.EmailAddress << (T, white) >>
{
   <b><color:#b8861b><&key></color> BusinessEntityID</b>: int <<PK>>
   <b><color:#b8861b><&key></color> EmailAddressID</b>: int <<PK>>
   <color:#efefef><&media-record></color> EmailAddress: nvarchar
   <color:#efefef><&media-record></color> rowguid: uniqueidentifier
   <color:#efefef><&media-record></color> ModifiedDate: datetime
}
entity Person.Password << (T, white) >>
{
   <b><color:#b8861b><&key></color> BusinessEntityID</b>: int <<PK>>
   <color:#efefef><&media-record></color> PasswordHash: varchar
   <color:#efefef><&media-record></color> PasswordSalt: varchar
   <color:#efefef><&media-record></color> rowguid: uniqueidentifier
   <color:#efefef><&media-record></color> ModifiedDate: datetime
}
entity Person.Person << (T, white) >>
{
   <b><color:#b8861b><&key></color> BusinessEntityID</b>: int <<PK>>
   <color:#efefef><&media-record></color> PersonType: nchar
   <color:#efefef><&media-record></color> NameStyle: bit
   <color:#efefef><&media-record></color> Title: nvarchar
   <color:#efefef><&media-record></color> FirstName: nvarchar
   <color:#efefef><&media-record></color> MiddleName: nvarchar
   <color:#efefef><&media-record></color> LastName: nvarchar
   <color:#efefef><&media-record></color> Suffix: nvarchar
   <color:#efefef><&media-record></color> EmailPromotion: int
   <color:#efefef><&media-record></color> AdditionalContactInfo: xml
   <color:#efefef><&media-record></color> Demographics: xml
   <color:#efefef><&media-record></color> rowguid: uniqueidentifier
   <color:#efefef><&media-record></color> ModifiedDate: datetime
}
entity Person.PersonPhone << (T, white) >>
{
   <b><color:#b8861b><&key></color> BusinessEntityID</b>: int <<PK>>
   <b><color:#b8861b><&key></color> PhoneNumber</b>: nvarchar <<PK>>
   <b><color:#b8861b><&key></color> PhoneNumberTypeID</b>: int <<PK>>
   <color:#efefef><&media-record></color> ModifiedDate: datetime
}
entity Person.PhoneNumberType << (T, white) >>
{
   <b><color:#b8861b><&key></color> PhoneNumberTypeID</b>: int <<PK>>
   <color:#efefef><&media-record></color> Name: nvarchar
   <color:#efefef><&media-record></color> ModifiedDate: datetime
}
Person.Address }|- -|| Person.StateProvince
Person.StateProvince }|- -|| Person.CountryRegion
Person.BusinessEntityAddress }|- -|| Person.Address
Person.BusinessEntityAddress }|- -|| Person.AddressType
Person.BusinessEntityAddress }|- -|| Person.BusinessEntity
Person.BusinessEntityContact }|- -|| Person.Person
Person.BusinessEntityContact }|- -|| Person.ContactType
Person.BusinessEntityContact }|- -|| Person.BusinessEntity
Person.EmailAddress }|- -|| Person.Person
Person.Password }|- -|| Person.Person
Person.Person }|- -|| Person.BusinessEntity
Person.PersonPhone }|- -|| Person.Person
Person.PersonPhone }|- -|| Person.PhoneNumberType
@enduml

PlantUML version 1.2022.5(Sat Apr 30 11:55:52 BST 2022)
(GPL source distribution)
Java Runtime: Java(TM) SE Runtime Environment
JVM: Java HotSpot(TM) Client VM
Default Encoding: Cp1252
Language: en
Country: GB
--></g></svg>